<svg width="20" height="20" viewBox="0 0 20 20" fill="none" xmlns="http://www.w3.org/2000/svg">
<path d="M5.25646 17.9166C4.83549 17.9166 4.47917 17.7708 4.1875 17.4791C3.89583 17.1875 3.75 16.8312 3.75 16.4102V3.58977C3.75 3.1688 3.89583 2.81248 4.1875 2.52081C4.47917 2.22915 4.83549 2.08331 5.25646 2.08331H11.609C11.8353 2.08331 12.0491 2.1306 12.2502 2.22519C12.4515 2.31963 12.6213 2.45505 12.7596 2.63144L15.8942 6.39269C16.0065 6.53116 16.0939 6.6822 16.1562 6.84581C16.2188 7.00956 16.25 7.1806 16.25 7.35894V16.1537C16.25 16.4919 16.0959 16.7237 15.7877 16.8489C15.4794 16.9742 15.2067 16.9182 14.9696 16.681L11.5544 13.2916C11.3183 13.4497 11.0732 13.5656 10.8192 13.6394C10.5651 13.7131 10.2921 13.75 10 13.75C9.19792 13.75 8.51132 13.4644 7.94021 12.8931C7.36896 12.322 7.08333 11.6354 7.08333 10.8333C7.08333 10.0312 7.36896 9.34463 7.94021 8.77352C8.51132 8.20227 9.19792 7.91665 10 7.91665C10.8021 7.91665 11.4887 8.20227 12.0598 8.77352C12.631 9.34463 12.9167 10.0312 12.9167 10.8333C12.9167 11.1368 12.8785 11.4154 12.8021 11.6691C12.7257 11.9228 12.6111 12.1623 12.4583 12.3877L15 14.9712V7.24998L11.7083 3.33331H5.25646C5.19229 3.33331 5.13354 3.36005 5.08021 3.41352C5.02674 3.46685 5 3.5256 5 3.58977V16.4102C5 16.4744 5.02674 16.5331 5.08021 16.5864C5.13354 16.6399 5.19229 16.6666 5.25646 16.6666H12.3142C12.5225 16.6666 12.6788 16.7316 12.7829 16.8614C12.8871 16.9914 12.9392 17.1344 12.9392 17.2902C12.9392 17.446 12.8871 17.5894 12.7829 17.7204C12.6788 17.8512 12.5225 17.9166 12.3142 17.9166H5.25646ZM10 12.5C10.4583 12.5 10.8507 12.3368 11.1771 12.0104C11.5035 11.684 11.6667 11.2916 11.6667 10.8333C11.6667 10.375 11.5035 9.98262 11.1771 9.65623C10.8507 9.32984 10.4583 9.16665 10 9.16665C9.54167 9.16665 9.14931 9.32984 8.82292 9.65623C8.49653 9.98262 8.33333 10.375 8.33333 10.8333C8.33333 11.2916 8.49653 11.684 8.82292 12.0104C9.14931 12.3368 9.54167 12.5 10 12.5Z" fill="#6A6666"/>
</svg>
