<svg width="20" height="20" viewBox="0 0 20 20" fill="none" xmlns="http://www.w3.org/2000/svg">
<path d="M4.47749 13.9583L6.41353 15.8942C6.53742 16.0182 6.59853 16.1633 6.59687 16.3294C6.59534 16.4955 6.52992 16.6432 6.40062 16.7725C6.27131 16.8932 6.12492 16.9557 5.96145 16.96C5.79812 16.9642 5.6518 16.9017 5.52249 16.7725L2.61062 13.8606C2.53256 13.7826 2.47756 13.7003 2.44562 13.6137C2.41353 13.5272 2.39749 13.4337 2.39749 13.3333C2.39749 13.2329 2.41353 13.1394 2.44562 13.0529C2.47756 12.9664 2.53256 12.8841 2.61062 12.806L5.52249 9.89416C5.63791 9.77888 5.78076 9.71985 5.95103 9.71707C6.12145 9.71444 6.27131 9.77346 6.40062 9.89416C6.52992 10.0235 6.59457 10.172 6.59457 10.3398C6.59457 10.5074 6.52992 10.6559 6.40062 10.7852L4.47749 12.7083H16.4583C16.6357 12.7083 16.7842 12.7682 16.9037 12.8879C17.0235 13.0075 17.0833 13.156 17.0833 13.3333C17.0833 13.5107 17.0235 13.6592 16.9037 13.7787C16.7842 13.8985 16.6357 13.9583 16.4583 13.9583H4.47749ZM15.5225 7.29166H3.54166C3.3643 7.29166 3.21582 7.2318 3.09624 7.11207C2.97652 6.99249 2.91666 6.84402 2.91666 6.66666C2.91666 6.4893 2.97652 6.34082 3.09624 6.22124C3.21582 6.10152 3.3643 6.04166 3.54166 6.04166H15.5225L13.5865 4.10582C13.4626 3.9818 13.4014 3.83673 13.4031 3.67062C13.4046 3.5045 13.4701 3.3568 13.5994 3.22749C13.7287 3.1068 13.8751 3.0443 14.0385 3.03999C14.2019 3.03582 14.3482 3.09832 14.4775 3.22749L17.3894 6.13937C17.4674 6.21742 17.5224 6.29971 17.5544 6.38624C17.5864 6.47277 17.6025 6.56624 17.6025 6.66666C17.6025 6.76707 17.5864 6.86055 17.5544 6.94707C17.5224 7.0336 17.4674 7.11589 17.3894 7.19395L14.4775 10.1058C14.3621 10.2211 14.2192 10.2801 14.0489 10.2829C13.8785 10.2855 13.7287 10.2265 13.5994 10.1058C13.4701 9.97652 13.4054 9.82798 13.4054 9.6602C13.4054 9.49256 13.4701 9.34409 13.5994 9.21478L15.5225 7.29166Z" fill="#201E1E"/>
</svg>
