<svg width="20" height="20" viewBox="0 0 20 20" fill="none" xmlns="http://www.w3.org/2000/svg">
<path d="M9.07711 17.9166C8.79295 17.9166 8.54753 17.8223 8.34086 17.6337C8.13406 17.4453 8.00823 17.2132 7.96336 16.9375L7.75982 15.3781C7.53663 15.3034 7.30774 15.1987 7.07316 15.0641C6.83871 14.9294 6.62906 14.7852 6.4442 14.6314L5.00024 15.2452C4.73843 15.3606 4.47538 15.3718 4.21107 15.2787C3.94663 15.1858 3.74121 15.0171 3.59482 14.7725L2.65566 13.1441C2.50927 12.8996 2.46711 12.6407 2.5292 12.3677C2.59114 12.0948 2.73323 11.8696 2.95545 11.6923L4.20378 10.7548C4.18461 10.6309 4.171 10.5064 4.16295 10.3814C4.15489 10.2564 4.15086 10.1319 4.15086 10.0079C4.15086 9.88942 4.15489 9.76901 4.16295 9.64665C4.171 9.52428 4.18461 9.39047 4.20378 9.24519L2.95545 8.30769C2.73323 8.13033 2.59246 7.9038 2.53316 7.6281C2.47385 7.35255 2.51739 7.09241 2.66378 6.84769L3.59482 5.24352C3.74121 5.00422 3.94663 4.83679 4.21107 4.74123C4.47538 4.64554 4.73843 4.6554 5.00024 4.77081L6.43607 5.37665C6.63705 5.21748 6.85156 5.07192 7.07961 4.93998C7.30767 4.80803 7.53177 4.70199 7.75191 4.62185L7.96336 3.06248C8.00823 2.78679 8.13406 2.5547 8.34086 2.36623C8.54753 2.17762 8.79295 2.08331 9.07711 2.08331H10.9234C11.2075 2.08331 11.4529 2.17762 11.6596 2.36623C11.8664 2.5547 11.9923 2.78679 12.0371 3.06248L12.2407 4.62977C12.4907 4.7206 12.7168 4.82665 12.9192 4.9479C13.1217 5.06915 13.3261 5.21206 13.5323 5.37665L15.0084 4.77081C15.27 4.6554 15.5331 4.64554 15.7975 4.74123C16.062 4.83679 16.2673 5.00422 16.4136 5.24352L17.3448 6.85581C17.4912 7.1004 17.5334 7.35921 17.4713 7.63227C17.4093 7.90519 17.2673 8.13033 17.045 8.30769L15.7646 9.26915C15.7945 9.40373 15.8108 9.52956 15.8136 9.64665C15.8162 9.76359 15.8175 9.88137 15.8175 9.99998C15.8175 10.1132 15.8148 10.2283 15.8094 10.3454C15.8041 10.4623 15.785 10.5962 15.7519 10.7469L17.0082 11.6923C17.2304 11.8696 17.3738 12.0948 17.4386 12.3677C17.5032 12.6407 17.4623 12.8996 17.3159 13.1441L16.3719 14.7644C16.2257 15.0091 16.019 15.1779 15.7519 15.2708C15.4848 15.3637 15.2204 15.3525 14.9586 15.2371L13.5323 14.6233C13.3261 14.7879 13.1156 14.9335 12.9009 15.06C12.6861 15.1866 12.4661 15.29 12.2407 15.3702L12.0371 16.9375C11.9923 17.2132 11.8664 17.4453 11.6596 17.6337C11.4529 17.8223 11.2075 17.9166 10.9234 17.9166H9.07711ZM9.16691 16.6666H10.8048L11.1044 14.4344C11.5297 14.3232 11.9183 14.1654 12.2702 13.9608C12.6223 13.7561 12.9618 13.493 13.2888 13.1714L15.3592 14.0416L16.1798 12.625L14.3721 11.2629C14.4416 11.0471 14.4888 10.8355 14.5138 10.6281C14.5389 10.4209 14.5515 10.2115 14.5515 9.99998C14.5515 9.78303 14.5389 9.57366 14.5138 9.37185C14.4888 9.16991 14.4416 8.96366 14.3721 8.7531L16.1957 7.37498L15.3752 5.95831L13.2807 6.84123C13.0018 6.54317 12.6677 6.27984 12.2784 6.05123C11.8889 5.82262 11.495 5.66074 11.0965 5.5656L10.8336 3.33331H9.17982L8.90399 5.55769C8.47885 5.6581 8.08628 5.81192 7.72628 6.01915C7.36614 6.22651 7.0226 6.49359 6.69566 6.8204L4.62524 5.95831L3.80482 7.37498L5.60441 8.71623C5.53496 8.91401 5.48635 9.1197 5.45857 9.33331C5.43079 9.54692 5.41691 9.77178 5.41691 10.0079C5.41691 10.2248 5.43079 10.4375 5.45857 10.6458C5.48635 10.8541 5.53232 11.0598 5.59649 11.2629L3.80482 12.625L4.62524 14.0416L6.68774 13.1666C7.00399 13.4914 7.34211 13.7574 7.70211 13.9648C8.06225 14.172 8.46024 14.3312 8.89607 14.4423L9.16691 16.6666ZM10.0098 12.5C10.7032 12.5 11.2932 12.2566 11.7798 11.77C12.2665 11.2833 12.5098 10.6933 12.5098 9.99998C12.5098 9.30665 12.2665 8.71665 11.7798 8.22998C11.2932 7.74331 10.7032 7.49998 10.0098 7.49998C9.30788 7.49998 8.71573 7.74331 8.23336 8.22998C7.751 8.71665 7.50982 9.30665 7.50982 9.99998C7.50982 10.6933 7.751 11.2833 8.23336 11.77C8.71573 12.2566 9.30788 12.5 10.0098 12.5Z" fill="#6A6666"/>
</svg>
