<svg width="20" height="20" viewBox="0 0 20 20" fill="none" xmlns="http://www.w3.org/2000/svg">
<path d="M5.25646 17.9167C4.83549 17.9167 4.47917 17.7709 4.1875 17.4792C3.89583 17.1875 3.75 16.8312 3.75 16.4102V3.58983C3.75 3.16886 3.89583 2.81254 4.1875 2.52087C4.47917 2.22921 4.83549 2.08337 5.25646 2.08337H11.609C11.8353 2.08337 12.0491 2.13067 12.2502 2.22525C12.4515 2.31969 12.6213 2.45511 12.7596 2.6315L15.8942 6.39275C16.0065 6.53122 16.0939 6.68226 16.1562 6.84587C16.2188 7.00962 16.25 7.18067 16.25 7.359V16.1538C16.25 16.492 16.0959 16.7237 15.7877 16.849C15.4794 16.9743 15.2067 16.9183 14.9696 16.6811L11.5544 13.2917C11.3183 13.4498 11.0732 13.5657 10.8192 13.6394C10.5651 13.7132 10.2921 13.75 10 13.75C9.19792 13.75 8.51132 13.4644 7.94021 12.8932C7.36896 12.3221 7.08333 11.6355 7.08333 10.8334C7.08333 10.0313 7.36896 9.34469 7.94021 8.77358C8.51132 8.20233 9.19792 7.91671 10 7.91671C10.8021 7.91671 11.4887 8.20233 12.0598 8.77358C12.631 9.34469 12.9167 10.0313 12.9167 10.8334C12.9167 11.1368 12.8785 11.4155 12.8021 11.6692C12.7257 11.9228 12.6111 12.1623 12.4583 12.3877L15 14.9713V7.25004L11.7083 3.33337H5.25646C5.19229 3.33337 5.13354 3.36011 5.08021 3.41358C5.02674 3.46692 5 3.52567 5 3.58983V16.4102C5 16.4744 5.02674 16.5332 5.08021 16.5865C5.13354 16.64 5.19229 16.6667 5.25646 16.6667H12.3142C12.5225 16.6667 12.6788 16.7316 12.7829 16.8615C12.8871 16.9915 12.9392 17.1344 12.9392 17.2902C12.9392 17.4461 12.8871 17.5895 12.7829 17.7205C12.6788 17.8513 12.5225 17.9167 12.3142 17.9167H5.25646ZM10 12.5C10.4583 12.5 10.8507 12.3368 11.1771 12.0105C11.5035 11.6841 11.6667 11.2917 11.6667 10.8334C11.6667 10.375 11.5035 9.98268 11.1771 9.65629C10.8507 9.3299 10.4583 9.16671 10 9.16671C9.54167 9.16671 9.14931 9.3299 8.82292 9.65629C8.49653 9.98268 8.33333 10.375 8.33333 10.8334C8.33333 11.2917 8.49653 11.6841 8.82292 12.0105C9.14931 12.3368 9.54167 12.5 10 12.5Z" fill="#201E1E"/>
</svg>
