<svg width="20" height="20" viewBox="0 0 20 20" fill="none" xmlns="http://www.w3.org/2000/svg">
<path d="M6.71505 13.9744C6.92407 13.9744 7.09914 13.9037 7.24025 13.7623C7.38123 13.6209 7.45171 13.4457 7.45171 13.2367C7.45171 13.0277 7.38102 12.8526 7.23963 12.7115C7.09824 12.5705 6.92303 12.5 6.714 12.5C6.50498 12.5 6.32998 12.5707 6.189 12.7121C6.04789 12.8535 5.97734 13.0287 5.97734 13.2377C5.97734 13.4468 6.04803 13.6218 6.18942 13.7627C6.33095 13.9038 6.50616 13.9744 6.71505 13.9744ZM6.71505 10.7371C6.92407 10.7371 7.09914 10.6664 7.24025 10.525C7.38123 10.3836 7.45171 10.2084 7.45171 9.9994C7.45171 9.79037 7.38102 9.61537 7.23963 9.4744C7.09824 9.33342 6.92303 9.26294 6.714 9.26294C6.50498 9.26294 6.32998 9.33363 6.189 9.47502C6.04789 9.61641 5.97734 9.79162 5.97734 10.0006C5.97734 10.2097 6.04803 10.3847 6.18942 10.5256C6.33095 10.6666 6.50616 10.7371 6.71505 10.7371ZM6.71505 7.50002C6.92407 7.50002 7.09914 7.42933 7.24025 7.28794C7.38123 7.14655 7.45171 6.97134 7.45171 6.76231C7.45171 6.55328 7.38102 6.37828 7.23963 6.23731C7.09824 6.0962 6.92303 6.02565 6.714 6.02565C6.50498 6.02565 6.32998 6.09634 6.189 6.23773C6.04789 6.37912 5.97734 6.55433 5.97734 6.76335C5.97734 6.97238 6.04803 7.14745 6.18942 7.28856C6.33095 7.42953 6.50616 7.50002 6.71505 7.50002ZM9.87171 13.8621H13.3653C13.5423 13.8621 13.6907 13.8022 13.8105 13.6823C13.9303 13.5626 13.9903 13.4141 13.9903 13.2369C13.9903 13.0598 13.9303 12.9114 13.8105 12.7917C13.6907 12.6721 13.5423 12.6123 13.3653 12.6123H9.87171C9.69463 12.6123 9.54616 12.6722 9.4263 12.7919C9.30657 12.9118 9.24671 13.0603 9.24671 13.2375C9.24671 13.4146 9.30657 13.563 9.4263 13.6827C9.54616 13.8023 9.69463 13.8621 9.87171 13.8621ZM9.87171 10.625H13.3653C13.5423 10.625 13.6907 10.5651 13.8105 10.4452C13.9303 10.3254 13.9903 10.1769 13.9903 9.99981C13.9903 9.82259 13.9303 9.67419 13.8105 9.5546C13.6907 9.43488 13.5423 9.37502 13.3653 9.37502H9.87171C9.69463 9.37502 9.54616 9.43495 9.4263 9.55481C9.30657 9.67467 9.24671 9.82315 9.24671 10.0002C9.24671 10.1775 9.30657 10.3259 9.4263 10.4454C9.54616 10.5652 9.69463 10.625 9.87171 10.625ZM9.87171 7.38773H13.3653C13.5423 7.38773 13.6907 7.32787 13.8105 7.20815C13.9303 7.08828 13.9903 6.93974 13.9903 6.76252C13.9903 6.58544 13.9303 6.43703 13.8105 6.31731C13.6907 6.19773 13.5423 6.13794 13.3653 6.13794H9.87171C9.69463 6.13794 9.54616 6.19787 9.4263 6.31773C9.30657 6.43745 9.24671 6.58592 9.24671 6.76315C9.24671 6.94023 9.30657 7.08863 9.4263 7.20835C9.54616 7.32794 9.69463 7.38773 9.87171 7.38773ZM4.42296 17.0834C4.00199 17.0834 3.64567 16.9375 3.354 16.6459C3.06234 16.3542 2.9165 15.9979 2.9165 15.5769V4.42315C2.9165 4.00217 3.06234 3.64585 3.354 3.35419C3.64567 3.06252 4.00199 2.91669 4.42296 2.91669H15.5767C15.9977 2.91669 16.354 3.06252 16.6457 3.35419C16.9373 3.64585 17.0832 4.00217 17.0832 4.42315V15.5769C17.0832 15.9979 16.9373 16.3542 16.6457 16.6459C16.354 16.9375 15.9977 17.0834 15.5767 17.0834H4.42296ZM4.42296 15.8334H15.5767C15.6409 15.8334 15.6996 15.8066 15.753 15.7531C15.8064 15.6998 15.8332 15.6411 15.8332 15.5769V4.42315C15.8332 4.35898 15.8064 4.30023 15.753 4.24689C15.6996 4.19342 15.6409 4.16669 15.5767 4.16669H4.42296C4.3588 4.16669 4.30005 4.19342 4.24671 4.24689C4.19324 4.30023 4.1665 4.35898 4.1665 4.42315V15.5769C4.1665 15.6411 4.19324 15.6998 4.24671 15.7531C4.30005 15.8066 4.3588 15.8334 4.42296 15.8334Z" fill="#6A6666"/>
</svg>
