<svg width="20" height="20" viewBox="0 0 20 20" fill="none" xmlns="http://www.w3.org/2000/svg">
<path d="M9.07711 17.9167C8.79295 17.9167 8.54753 17.8224 8.34086 17.6338C8.13406 17.4453 8.00823 17.2132 7.96336 16.9375L7.75982 15.3782C7.53663 15.3034 7.30774 15.1988 7.07316 15.0642C6.83871 14.9295 6.62906 14.7852 6.4442 14.6315L5.00024 15.2452C4.73843 15.3607 4.47538 15.3718 4.21107 15.2788C3.94663 15.1859 3.74121 15.0171 3.59482 14.7725L2.65566 13.1442C2.50927 12.8996 2.46711 12.6408 2.5292 12.3677C2.59114 12.0948 2.73323 11.8697 2.95545 11.6923L4.20378 10.7548C4.18461 10.6309 4.171 10.5065 4.16295 10.3815C4.15489 10.2565 4.15086 10.132 4.15086 10.008C4.15086 9.88948 4.15489 9.76907 4.16295 9.64671C4.171 9.52435 4.18461 9.39053 4.20378 9.24525L2.95545 8.30775C2.73323 8.13039 2.59246 7.90386 2.53316 7.62817C2.47385 7.35261 2.51739 7.09247 2.66378 6.84775L3.59482 5.24358C3.74121 5.00428 3.94663 4.83685 4.21107 4.74129C4.47538 4.6456 4.73843 4.65546 5.00024 4.77087L6.43607 5.37671C6.63705 5.21754 6.85156 5.07198 7.07961 4.94004C7.30767 4.8081 7.53177 4.70205 7.75191 4.62192L7.96336 3.06254C8.00823 2.78685 8.13406 2.55476 8.34086 2.36629C8.54753 2.17768 8.79295 2.08337 9.07711 2.08337H10.9234C11.2075 2.08337 11.4529 2.17768 11.6596 2.36629C11.8664 2.55476 11.9923 2.78685 12.0371 3.06254L12.2407 4.62983C12.4907 4.72067 12.7168 4.82671 12.9192 4.94796C13.1217 5.06921 13.3261 5.21212 13.5323 5.37671L15.0084 4.77087C15.27 4.65546 15.5331 4.6456 15.7975 4.74129C16.062 4.83685 16.2673 5.00428 16.4136 5.24358L17.3448 6.85587C17.4912 7.10046 17.5334 7.35928 17.4713 7.63233C17.4093 7.90525 17.2673 8.13039 17.045 8.30775L15.7646 9.26921C15.7945 9.40379 15.8108 9.52962 15.8136 9.64671C15.8162 9.76365 15.8175 9.88143 15.8175 10C15.8175 10.1132 15.8148 10.2284 15.8094 10.3455C15.8041 10.4624 15.785 10.5962 15.7519 10.7469L17.0082 11.6923C17.2304 11.8697 17.3738 12.0948 17.4386 12.3677C17.5032 12.6408 17.4623 12.8996 17.3159 13.1442L16.3719 14.7644C16.2257 15.0091 16.019 15.178 15.7519 15.2709C15.4848 15.3638 15.2204 15.3525 14.9586 15.2371L13.5323 14.6234C13.3261 14.788 13.1156 14.9335 12.9009 15.06C12.6861 15.1867 12.4661 15.2901 12.2407 15.3702L12.0371 16.9375C11.9923 17.2132 11.8664 17.4453 11.6596 17.6338C11.4529 17.8224 11.2075 17.9167 10.9234 17.9167H9.07711ZM9.16691 16.6667H10.8048L11.1044 14.4344C11.5297 14.3233 11.9183 14.1655 12.2702 13.9609C12.6223 13.7562 12.9618 13.493 13.2888 13.1715L15.3592 14.0417L16.1798 12.625L14.3721 11.263C14.4416 11.0471 14.4888 10.8355 14.5138 10.6282C14.5389 10.4209 14.5515 10.2116 14.5515 10C14.5515 9.7831 14.5389 9.57372 14.5138 9.37192C14.4888 9.16997 14.4416 8.96372 14.3721 8.75317L16.1957 7.37504L15.3752 5.95837L13.2807 6.84129C13.0018 6.54323 12.6677 6.2799 12.2784 6.05129C11.8889 5.82268 11.495 5.6608 11.0965 5.56567L10.8336 3.33337H9.17982L8.90399 5.55775C8.47885 5.65817 8.08628 5.81198 7.72628 6.01921C7.36614 6.22657 7.0226 6.49365 6.69566 6.82046L4.62524 5.95837L3.80482 7.37504L5.60441 8.71629C5.53496 8.91407 5.48635 9.11976 5.45857 9.33337C5.43079 9.54698 5.41691 9.77185 5.41691 10.008C5.41691 10.2249 5.43079 10.4375 5.45857 10.6459C5.48635 10.8542 5.53232 11.0599 5.59649 11.263L3.80482 12.625L4.62524 14.0417L6.68774 13.1667C7.00399 13.4914 7.34211 13.7575 7.70211 13.9648C8.06225 14.1721 8.46024 14.3312 8.89607 14.4423L9.16691 16.6667ZM10.0098 12.5C10.7032 12.5 11.2932 12.2567 11.7798 11.77C12.2665 11.2834 12.5098 10.6934 12.5098 10C12.5098 9.30671 12.2665 8.71671 11.7798 8.23004C11.2932 7.74337 10.7032 7.50004 10.0098 7.50004C9.30788 7.50004 8.71573 7.74337 8.23336 8.23004C7.751 8.71671 7.50982 9.30671 7.50982 10C7.50982 10.6934 7.751 11.2834 8.23336 11.77C8.71573 12.2567 9.30788 12.5 10.0098 12.5Z" fill="#201E1E"/>
</svg>
