<svg width="20" height="20" viewBox="0 0 20 20" fill="none" xmlns="http://www.w3.org/2000/svg">
<path d="M3.33337 15.8334H6.94712V9.16669H3.33337V15.8334ZM8.19712 15.8334H11.803V4.16669H8.19712V15.8334ZM13.053 15.8334H16.6667V10.8334H13.053V15.8334ZM2.08337 15.5769V9.42315C2.08337 9.00884 2.23087 8.65419 2.52587 8.35919C2.82087 8.06419 3.17553 7.91669 3.58983 7.91669H6.94712V4.42315C6.94712 4.00884 7.09462 3.65419 7.38962 3.35919C7.68462 3.06419 8.03928 2.91669 8.45358 2.91669H11.5465C11.9608 2.91669 12.3155 3.06419 12.6105 3.35919C12.9055 3.65419 13.053 4.00884 13.053 4.42315V9.58335H16.4102C16.8246 9.58335 17.1792 9.73085 17.4742 10.0259C17.7692 10.3209 17.9167 10.6755 17.9167 11.0898V15.5769C17.9167 15.9912 17.7692 16.3459 17.4742 16.6409C17.1792 16.9359 16.8246 17.0834 16.4102 17.0834H3.58983C3.17553 17.0834 2.82087 16.9359 2.52587 16.6409C2.23087 16.3459 2.08337 15.9912 2.08337 15.5769Z" fill="#6A6666"/>
</svg>
