<svg width="20" height="20" viewBox="0 0 20 20" fill="none" xmlns="http://www.w3.org/2000/svg">
<path d="M8.33337 9.74355C7.53129 9.74355 6.84469 9.458 6.27358 8.88688C5.70233 8.31563 5.41671 7.62897 5.41671 6.82688C5.41671 6.0248 5.70233 5.3382 6.27358 4.76709C6.84469 4.19584 7.53129 3.91022 8.33337 3.91022C9.13546 3.91022 9.82205 4.19584 10.3932 4.76709C10.9644 5.3382 11.25 6.0248 11.25 6.82688C11.25 7.62897 10.9644 8.31563 10.3932 8.88688C9.82205 9.458 9.13546 9.74355 8.33337 9.74355ZM2.08337 14.8238V14.2371C2.08337 13.8163 2.19212 13.4351 2.40962 13.0938C2.62699 12.7524 2.92532 12.4856 3.30462 12.2933C4.05671 11.912 4.83615 11.616 5.64296 11.4054C6.44976 11.195 7.27608 11.0898 8.12192 11.0898H8.24212C8.41921 11.0898 8.56761 11.1521 8.68733 11.2767C8.80705 11.4014 8.86691 11.5521 8.86691 11.7288C8.86691 11.9053 8.80705 12.0534 8.68733 12.1731C8.56761 12.2927 8.41921 12.3525 8.24212 12.3525H8.12192C7.37011 12.3525 6.64185 12.4431 5.93712 12.6242C5.23226 12.8053 4.54594 13.0695 3.87817 13.4167C3.71803 13.5021 3.58719 13.6154 3.48567 13.7565C3.38414 13.8974 3.33337 14.0576 3.33337 14.2371V14.8398H8.24212C8.41921 14.8398 8.56761 14.8997 8.68733 15.0196C8.80705 15.1393 8.86691 15.2878 8.86691 15.465C8.86691 15.6422 8.80705 15.7906 8.68733 15.9102C8.56761 16.0299 8.41921 16.0898 8.24212 16.0898H3.34942C2.99789 16.0898 2.699 15.9667 2.45275 15.7204C2.2065 15.474 2.08337 15.1751 2.08337 14.8238ZM13.3365 16.2244L13.2357 15.6008C13.0369 15.5421 12.8499 15.4652 12.6746 15.3702C12.4995 15.2751 12.3328 15.1559 12.1746 15.0127L11.5546 15.2404C11.4221 15.2853 11.2941 15.2825 11.1705 15.2321C11.047 15.1817 10.9507 15.1011 10.8815 14.9904L10.7709 14.7948C10.7003 14.6762 10.675 14.547 10.695 14.4071C10.715 14.2672 10.7798 14.1524 10.8894 14.0625L11.388 13.6667C11.3281 13.4508 11.2982 13.2382 11.2982 13.0288C11.2982 12.8195 11.3281 12.6069 11.388 12.3911L10.8975 11.9792C10.7875 11.8915 10.7213 11.7807 10.6988 11.6467C10.6763 11.5125 10.7003 11.3862 10.7709 11.2677L10.8942 11.0594C10.9649 10.9486 11.0609 10.8679 11.1821 10.8175C11.3032 10.7672 11.43 10.7645 11.5625 10.8094L12.1746 11.0369C12.3274 10.8937 12.4927 10.7759 12.6707 10.6836C12.8486 10.5911 13.0369 10.5154 13.2357 10.4567L13.3365 9.82043C13.3622 9.67945 13.428 9.56598 13.5338 9.48001C13.6395 9.39404 13.7628 9.35105 13.9038 9.35105H14.125C14.266 9.35105 14.3894 9.39619 14.4952 9.48647C14.6009 9.57675 14.6666 9.69237 14.6923 9.83334L14.7852 10.4567C14.984 10.5154 15.1723 10.5932 15.3502 10.69C15.528 10.7867 15.6933 10.9108 15.8461 11.0625L16.4327 10.835C16.5737 10.7815 16.7078 10.7801 16.835 10.8308C16.9621 10.8817 17.0607 10.9651 17.1307 11.0811L17.2507 11.2842C17.3207 11.4003 17.3445 11.5275 17.3221 11.6658C17.2996 11.8042 17.2334 11.9172 17.1234 12.0048L16.633 12.4167C16.6928 12.6171 16.7227 12.8258 16.7227 13.0429C16.7227 13.26 16.6928 13.4679 16.633 13.6667L17.1315 14.0625C17.2415 14.1501 17.3064 14.2623 17.3261 14.399C17.3458 14.5358 17.3205 14.6635 17.25 14.7821L17.1265 14.9904C17.0571 15.1011 16.9628 15.1817 16.8438 15.2321C16.7246 15.2825 16.5988 15.2853 16.4663 15.2404L15.8461 15.0127C15.688 15.1559 15.5214 15.2751 15.3461 15.3702C15.1709 15.4652 14.984 15.5421 14.7852 15.6008L14.6923 16.2371C14.6666 16.3782 14.6009 16.4917 14.4952 16.5777C14.3894 16.6637 14.266 16.7067 14.125 16.7067H13.9038C13.7628 16.7067 13.6395 16.6615 13.5338 16.5713C13.428 16.481 13.3622 16.3654 13.3365 16.2244ZM14.0071 14.6154C14.4437 14.6154 14.8171 14.46 15.1273 14.1492C15.4377 13.8383 15.593 13.4647 15.593 13.0281C15.593 12.5916 15.4375 12.2182 15.1267 11.9079C14.8159 11.5975 14.4422 11.4423 14.0057 11.4423C13.5693 11.4423 13.1959 11.5977 12.8855 11.9086C12.575 12.2194 12.4198 12.5931 12.4198 13.0296C12.4198 13.466 12.5752 13.8394 12.8861 14.1498C13.1969 14.4602 13.5706 14.6154 14.0071 14.6154ZM8.33337 8.49355C8.79171 8.49355 9.18407 8.33036 9.51046 8.00397C9.83685 7.67758 10 7.28522 10 6.82688C10 6.36855 9.83685 5.97619 9.51046 5.6498C9.18407 5.32341 8.79171 5.16022 8.33337 5.16022C7.87504 5.16022 7.48268 5.32341 7.15629 5.6498C6.8299 5.97619 6.66671 6.36855 6.66671 6.82688C6.66671 7.28522 6.8299 7.67758 7.15629 8.00397C7.48268 8.33036 7.87504 8.49355 8.33337 8.49355Z" fill="#201E1E"/>
</svg>
