<svg width="20" height="20" viewBox="0 0 20 20" fill="none" xmlns="http://www.w3.org/2000/svg">
<path d="M8.3335 9.74355C7.53141 9.74355 6.84482 9.458 6.2737 8.88688C5.70245 8.31563 5.41683 7.62897 5.41683 6.82688C5.41683 6.0248 5.70245 5.3382 6.2737 4.76709C6.84482 4.19584 7.53141 3.91022 8.3335 3.91022C9.13558 3.91022 9.82218 4.19584 10.3933 4.76709C10.9645 5.3382 11.2502 6.0248 11.2502 6.82688C11.2502 7.62897 10.9645 8.31563 10.3933 8.88688C9.82218 9.458 9.13558 9.74355 8.3335 9.74355ZM2.0835 14.8238V14.2371C2.0835 13.8163 2.19225 13.4351 2.40975 13.0938C2.62711 12.7524 2.92544 12.4856 3.30475 12.2933C4.05683 11.912 4.83627 11.616 5.64308 11.4054C6.44988 11.195 7.2762 11.0898 8.12204 11.0898H8.24225C8.41933 11.0898 8.56773 11.1521 8.68745 11.2767C8.80718 11.4014 8.86704 11.5521 8.86704 11.7288C8.86704 11.9053 8.80718 12.0534 8.68745 12.1731C8.56773 12.2927 8.41933 12.3525 8.24225 12.3525H8.12204C7.37023 12.3525 6.64197 12.4431 5.93725 12.6242C5.23239 12.8053 4.54607 13.0695 3.87829 13.4167C3.71815 13.5021 3.58732 13.6154 3.48579 13.7565C3.38426 13.8974 3.3335 14.0576 3.3335 14.2371V14.8398H8.24225C8.41933 14.8398 8.56773 14.8997 8.68745 15.0196C8.80718 15.1393 8.86704 15.2878 8.86704 15.465C8.86704 15.6422 8.80718 15.7906 8.68745 15.9102C8.56773 16.0299 8.41933 16.0898 8.24225 16.0898H3.34954C2.99801 16.0898 2.69912 15.9667 2.45287 15.7204C2.20662 15.474 2.0835 15.1751 2.0835 14.8238ZM13.3366 16.2244L13.2358 15.6008C13.037 15.5421 12.85 15.4652 12.6747 15.3702C12.4996 15.2751 12.3329 15.1559 12.1747 15.0127L11.5547 15.2404C11.4222 15.2853 11.2942 15.2825 11.1706 15.2321C11.0471 15.1817 10.9508 15.1011 10.8816 14.9904L10.771 14.7948C10.7004 14.6762 10.6752 14.547 10.6952 14.4071C10.7152 14.2672 10.78 14.1524 10.8895 14.0625L11.3881 13.6667C11.3282 13.4508 11.2983 13.2382 11.2983 13.0288C11.2983 12.8195 11.3282 12.6069 11.3881 12.3911L10.8977 11.9792C10.7877 11.8915 10.7214 11.7807 10.6989 11.6467C10.6764 11.5125 10.7004 11.3862 10.771 11.2677L10.8943 11.0594C10.965 10.9486 11.061 10.8679 11.1822 10.8175C11.3034 10.7672 11.4302 10.7645 11.5627 10.8094L12.1747 11.0369C12.3275 10.8937 12.4929 10.7759 12.6708 10.6836C12.8487 10.5911 13.037 10.5154 13.2358 10.4567L13.3366 9.82043C13.3623 9.67945 13.4281 9.56598 13.5339 9.48001C13.6396 9.39404 13.7629 9.35105 13.9039 9.35105H14.1252C14.2661 9.35105 14.3895 9.39619 14.4954 9.48647C14.6011 9.57675 14.6668 9.69237 14.6925 9.83334L14.7854 10.4567C14.9841 10.5154 15.1725 10.5932 15.3504 10.69C15.5281 10.7867 15.6934 10.9108 15.8462 11.0625L16.4329 10.835C16.5738 10.7815 16.7079 10.7801 16.8352 10.8308C16.9622 10.8817 17.0608 10.9651 17.1308 11.0811L17.2508 11.2842C17.3208 11.4003 17.3446 11.5275 17.3222 11.6658C17.2997 11.8042 17.2335 11.9172 17.1235 12.0048L16.6331 12.4167C16.6929 12.6171 16.7229 12.8258 16.7229 13.0429C16.7229 13.26 16.6929 13.4679 16.6331 13.6667L17.1316 14.0625C17.2416 14.1501 17.3065 14.2623 17.3262 14.399C17.3459 14.5358 17.3206 14.6635 17.2502 14.7821L17.1266 14.9904C17.0572 15.1011 16.9629 15.1817 16.8439 15.2321C16.7247 15.2825 16.5989 15.2853 16.4664 15.2404L15.8462 15.0127C15.6881 15.1559 15.5215 15.2751 15.3462 15.3702C15.1711 15.4652 14.9841 15.5421 14.7854 15.6008L14.6925 16.2371C14.6668 16.3782 14.6011 16.4917 14.4954 16.5777C14.3895 16.6637 14.2661 16.7067 14.1252 16.7067H13.9039C13.7629 16.7067 13.6396 16.6615 13.5339 16.5713C13.4281 16.481 13.3623 16.3654 13.3366 16.2244ZM14.0072 14.6154C14.4438 14.6154 14.8172 14.46 15.1275 14.1492C15.4379 13.8383 15.5931 13.4647 15.5931 13.0281C15.5931 12.5916 15.4377 12.2182 15.1268 11.9079C14.816 11.5975 14.4423 11.4423 14.0058 11.4423C13.5694 11.4423 13.196 11.5977 12.8856 11.9086C12.5752 12.2194 12.42 12.5931 12.42 13.0296C12.42 13.466 12.5754 13.8394 12.8862 14.1498C13.197 14.4602 13.5707 14.6154 14.0072 14.6154ZM8.3335 8.49355C8.79183 8.49355 9.18419 8.33036 9.51058 8.00397C9.83697 7.67758 10.0002 7.28522 10.0002 6.82688C10.0002 6.36855 9.83697 5.97619 9.51058 5.6498C9.18419 5.32341 8.79183 5.16022 8.3335 5.16022C7.87516 5.16022 7.4828 5.32341 7.15641 5.6498C6.83002 5.97619 6.66683 6.36855 6.66683 6.82688C6.66683 7.28522 6.83002 7.67758 7.15641 8.00397C7.4828 8.33036 7.87516 8.49355 8.3335 8.49355Z" fill="#6A6666"/>
</svg>
