<svg width="20" height="20" viewBox="0 0 20 20" fill="none" xmlns="http://www.w3.org/2000/svg">
<path d="M3.3335 15.8334H6.94725V9.16669H3.3335V15.8334ZM8.19725 15.8334H11.8031V4.16669H8.19725V15.8334ZM13.0531 15.8334H16.6668V10.8334H13.0531V15.8334ZM2.0835 15.5769V9.42315C2.0835 9.00884 2.231 8.65419 2.526 8.35919C2.821 8.06419 3.17565 7.91669 3.58995 7.91669H6.94725V4.42315C6.94725 4.00884 7.09475 3.65419 7.38975 3.35919C7.68475 3.06419 8.0394 2.91669 8.4537 2.91669H11.5466C11.9609 2.91669 12.3156 3.06419 12.6106 3.35919C12.9056 3.65419 13.0531 4.00884 13.0531 4.42315V9.58335H16.4104C16.8247 9.58335 17.1793 9.73085 17.4743 10.0259C17.7693 10.3209 17.9168 10.6755 17.9168 11.0898V15.5769C17.9168 15.9912 17.7693 16.3459 17.4743 16.6409C17.1793 16.9359 16.8247 17.0834 16.4104 17.0834H3.58995C3.17565 17.0834 2.821 16.9359 2.526 16.6409C2.231 16.3459 2.0835 15.9912 2.0835 15.5769Z" fill="#201E1E"/>
</svg>
