<svg width="20" height="20" viewBox="0 0 20 20" fill="none" xmlns="http://www.w3.org/2000/svg">
<path d="M4.47746 13.9583L6.4135 15.8942C6.53739 16.0182 6.5985 16.1633 6.59684 16.3294C6.59531 16.4955 6.52989 16.6432 6.40059 16.7725C6.27128 16.8932 6.12489 16.9557 5.96142 16.96C5.79809 16.9642 5.65177 16.9017 5.52246 16.7725L2.61059 13.8606C2.53253 13.7826 2.47753 13.7003 2.44559 13.6137C2.4135 13.5272 2.39746 13.4337 2.39746 13.3333C2.39746 13.2329 2.4135 13.1394 2.44559 13.0529C2.47753 12.9664 2.53253 12.8841 2.61059 12.806L5.52246 9.89416C5.63788 9.77888 5.78072 9.71985 5.951 9.71707C6.12142 9.71444 6.27128 9.77346 6.40059 9.89416C6.52989 10.0235 6.59454 10.172 6.59454 10.3398C6.59454 10.5074 6.52989 10.6559 6.40059 10.7852L4.47746 12.7083H16.4583C16.6357 12.7083 16.7841 12.7682 16.9037 12.8879C17.0234 13.0075 17.0833 13.156 17.0833 13.3333C17.0833 13.5107 17.0234 13.6592 16.9037 13.7787C16.7841 13.8985 16.6357 13.9583 16.4583 13.9583H4.47746ZM15.5225 7.29166H3.54163C3.36427 7.29166 3.21579 7.2318 3.09621 7.11207C2.97649 6.99249 2.91663 6.84402 2.91663 6.66666C2.91663 6.4893 2.97649 6.34082 3.09621 6.22124C3.21579 6.10152 3.36427 6.04166 3.54163 6.04166H15.5225L13.5864 4.10582C13.4625 3.9818 13.4014 3.83673 13.4031 3.67062C13.4046 3.5045 13.47 3.3568 13.5993 3.22749C13.7286 3.1068 13.875 3.0443 14.0385 3.03999C14.2018 3.03582 14.3482 3.09832 14.4775 3.22749L17.3893 6.13937C17.4674 6.21742 17.5224 6.29971 17.5543 6.38624C17.5864 6.47277 17.6025 6.56624 17.6025 6.66666C17.6025 6.76707 17.5864 6.86055 17.5543 6.94707C17.5224 7.0336 17.4674 7.11589 17.3893 7.19395L14.4775 10.1058C14.362 10.2211 14.2192 10.2801 14.0489 10.2829C13.8785 10.2855 13.7286 10.2265 13.5993 10.1058C13.47 9.97652 13.4054 9.82798 13.4054 9.6602C13.4054 9.49256 13.47 9.34409 13.5993 9.21478L15.5225 7.29166Z" fill="#6A6666"/>
</svg>
