<svg width="20" height="20" viewBox="0 0 20 20" fill="none" xmlns="http://www.w3.org/2000/svg">
<path d="M6.71529 13.9744C6.92432 13.9744 7.09939 13.9037 7.2405 13.7623C7.38147 13.6209 7.45196 13.4457 7.45196 13.2367C7.45196 13.0277 7.38126 12.8526 7.23987 12.7115C7.09848 12.5705 6.92328 12.5 6.71425 12.5C6.50522 12.5 6.33022 12.5707 6.18925 12.7121C6.04814 12.8535 5.97758 13.0287 5.97758 13.2377C5.97758 13.4468 6.04828 13.6218 6.18966 13.7627C6.33119 13.9038 6.5064 13.9744 6.71529 13.9744ZM6.71529 10.7371C6.92432 10.7371 7.09939 10.6664 7.2405 10.525C7.38147 10.3836 7.45196 10.2084 7.45196 9.9994C7.45196 9.79037 7.38126 9.61537 7.23987 9.4744C7.09848 9.33342 6.92328 9.26294 6.71425 9.26294C6.50522 9.26294 6.33022 9.33363 6.18925 9.47502C6.04814 9.61641 5.97758 9.79162 5.97758 10.0006C5.97758 10.2097 6.04828 10.3847 6.18966 10.5256C6.33119 10.6666 6.5064 10.7371 6.71529 10.7371ZM6.71529 7.50002C6.92432 7.50002 7.09939 7.42933 7.2405 7.28794C7.38147 7.14655 7.45196 6.97134 7.45196 6.76231C7.45196 6.55328 7.38126 6.37828 7.23987 6.23731C7.09848 6.0962 6.92328 6.02565 6.71425 6.02565C6.50522 6.02565 6.33022 6.09634 6.18925 6.23773C6.04814 6.37912 5.97758 6.55433 5.97758 6.76335C5.97758 6.97238 6.04828 7.14745 6.18966 7.28856C6.33119 7.42953 6.5064 7.50002 6.71529 7.50002ZM9.87196 13.8621H13.3655C13.5426 13.8621 13.691 13.8022 13.8107 13.6823C13.9306 13.5626 13.9905 13.4141 13.9905 13.2369C13.9905 13.0598 13.9306 12.9114 13.8107 12.7917C13.691 12.6721 13.5426 12.6123 13.3655 12.6123H9.87196C9.69487 12.6123 9.5464 12.6722 9.42654 12.7919C9.30682 12.9118 9.24696 13.0603 9.24696 13.2375C9.24696 13.4146 9.30682 13.563 9.42654 13.6827C9.5464 13.8023 9.69487 13.8621 9.87196 13.8621ZM9.87196 10.625H13.3655C13.5426 10.625 13.691 10.5651 13.8107 10.4452C13.9306 10.3254 13.9905 10.1769 13.9905 9.99981C13.9905 9.82259 13.9306 9.67419 13.8107 9.5546C13.691 9.43488 13.5426 9.37502 13.3655 9.37502H9.87196C9.69487 9.37502 9.5464 9.43495 9.42654 9.55481C9.30682 9.67467 9.24696 9.82315 9.24696 10.0002C9.24696 10.1775 9.30682 10.3259 9.42654 10.4454C9.5464 10.5652 9.69487 10.625 9.87196 10.625ZM9.87196 7.38773H13.3655C13.5426 7.38773 13.691 7.32787 13.8107 7.20815C13.9306 7.08828 13.9905 6.93974 13.9905 6.76252C13.9905 6.58544 13.9306 6.43703 13.8107 6.31731C13.691 6.19773 13.5426 6.13794 13.3655 6.13794H9.87196C9.69487 6.13794 9.5464 6.19787 9.42654 6.31773C9.30682 6.43745 9.24696 6.58592 9.24696 6.76315C9.24696 6.94023 9.30682 7.08863 9.42654 7.20835C9.5464 7.32794 9.69487 7.38773 9.87196 7.38773ZM4.42321 17.0834C4.00223 17.0834 3.64591 16.9375 3.35425 16.6459C3.06258 16.3542 2.91675 15.9979 2.91675 15.5769V4.42315C2.91675 4.00217 3.06258 3.64585 3.35425 3.35419C3.64591 3.06252 4.00223 2.91669 4.42321 2.91669H15.577C15.9979 2.91669 16.3542 3.06252 16.6459 3.35419C16.9376 3.64585 17.0834 4.00217 17.0834 4.42315V15.5769C17.0834 15.9979 16.9376 16.3542 16.6459 16.6459C16.3542 16.9375 15.9979 17.0834 15.577 17.0834H4.42321ZM4.42321 15.8334H15.577C15.6411 15.8334 15.6999 15.8066 15.7532 15.7531C15.8067 15.6998 15.8334 15.6411 15.8334 15.5769V4.42315C15.8334 4.35898 15.8067 4.30023 15.7532 4.24689C15.6999 4.19342 15.6411 4.16669 15.577 4.16669H4.42321C4.35904 4.16669 4.30029 4.19342 4.24696 4.24689C4.19348 4.30023 4.16675 4.35898 4.16675 4.42315V15.5769C4.16675 15.6411 4.19348 15.6998 4.24696 15.7531C4.30029 15.8066 4.35904 15.8334 4.42321 15.8334Z" fill="#201E1E"/>
</svg>
