<svg width="12" height="12" viewBox="0 0 12 12" fill="none" xmlns="http://www.w3.org/2000/svg">
<path fill-rule="evenodd" clip-rule="evenodd" d="M4.875 4.5C5.08211 4.5 5.25 4.66789 5.25 4.875V9.75C5.25 9.95711 5.08211 10.125 4.875 10.125C4.66789 10.125 4.5 9.95711 4.5 9.75V4.875C4.5 4.66789 4.66789 4.5 4.875 4.5Z" fill="white"/>
<path fill-rule="evenodd" clip-rule="evenodd" d="M1.125 4.875C1.125 4.66789 1.29289 4.5 1.5 4.5H10.5C10.7071 4.5 10.875 4.66789 10.875 4.875C10.875 5.08211 10.7071 5.25 10.5 5.25H1.5C1.29289 5.25 1.125 5.08211 1.125 4.875Z" fill="white"/>
<path fill-rule="evenodd" clip-rule="evenodd" d="M1.125 2.625C1.125 2.21079 1.46079 1.875 1.875 1.875H10.125C10.5392 1.875 10.875 2.21079 10.875 2.625V9.375C10.875 9.78921 10.5392 10.125 10.125 10.125H1.875C1.46079 10.125 1.125 9.78921 1.125 9.375V2.625ZM10.125 2.625H1.875V9.375H10.125V2.625Z" fill="white"/>
</svg>
