<svg width="16" height="16" viewBox="0 0 16 16" fill="none" xmlns="http://www.w3.org/2000/svg">
<mask id="mask0_1_368" style="mask-type:alpha" maskUnits="userSpaceOnUse" x="0" y="0" width="16" height="16">
<rect width="16" height="16" fill="#D9D9D9"/>
</mask>
<g mask="url(#mask0_1_368)">
<path d="M5.33326 7.99998V6.66665H10.6666V7.99998H5.33326ZM5.33326 5.33331V3.99998H10.6666V5.33331H5.33326ZM3.99993 9.33331H8.99993C9.32215 9.33331 9.62215 9.40276 9.89993 9.54165C10.1777 9.68053 10.411 9.87776 10.5999 10.1333L11.9999 11.9666V2.66665H3.99993V9.33331ZM3.99993 13.3333H11.3666L9.54993 10.95C9.48326 10.8611 9.40271 10.7916 9.30826 10.7416C9.21382 10.6916 9.11104 10.6666 8.99993 10.6666H3.99993V13.3333ZM11.9999 14.6666H3.99993C3.63326 14.6666 3.31937 14.5361 3.05826 14.275C2.79715 14.0139 2.6666 13.7 2.6666 13.3333V2.66665C2.6666 2.29998 2.79715 1.98609 3.05826 1.72498C3.31937 1.46387 3.63326 1.33331 3.99993 1.33331H11.9999C12.3666 1.33331 12.6805 1.46387 12.9416 1.72498C13.2027 1.98609 13.3333 2.29998 13.3333 2.66665V13.3333C13.3333 13.7 13.2027 14.0139 12.9416 14.275C12.6805 14.5361 12.3666 14.6666 11.9999 14.6666Z" fill="white"/>
</g>
</svg>
