<svg width="16" height="16" viewBox="0 0 16 16" fill="none" xmlns="http://www.w3.org/2000/svg">
<mask id="mask0_1_369" style="mask-type:alpha" maskUnits="userSpaceOnUse" x="0" y="0" width="16" height="16">
<rect width="16" height="16" fill="#D9D9D9"/>
</mask>
<g mask="url(#mask0_1_369)">
<path d="M1.99993 14C1.63326 14 1.31937 13.8694 1.05826 13.6083C0.797151 13.3472 0.666595 13.0333 0.666595 12.6666V3.99998H1.99993V12.6666H13.3333V14H1.99993ZM4.6666 11.3333C4.29993 11.3333 3.98604 11.2028 3.72493 10.9416C3.46382 10.6805 3.33326 10.3666 3.33326 9.99998V2.66665C3.33326 2.29998 3.46382 1.98609 3.72493 1.72498C3.98604 1.46387 4.29993 1.33331 4.6666 1.33331H7.99993L9.33326 2.66665H13.9999C14.3666 2.66665 14.6805 2.7972 14.9416 3.05831C15.2027 3.31942 15.3333 3.63331 15.3333 3.99998V9.99998C15.3333 10.3666 15.2027 10.6805 14.9416 10.9416C14.6805 11.2028 14.3666 11.3333 13.9999 11.3333H4.6666ZM4.6666 9.99998H13.9999V3.99998H8.78326L7.44993 2.66665H4.6666V9.99998Z" fill="white"/>
</g>
</svg>
