<svg width="12" height="12" viewBox="0 0 12 12" fill="none" xmlns="http://www.w3.org/2000/svg">
<path fill-rule="evenodd" clip-rule="evenodd" d="M1.125 2.625C1.125 2.21079 1.46079 1.875 1.875 1.875H10.125C10.5392 1.875 10.875 2.21079 10.875 2.625V8.25C10.875 8.66421 10.5392 9 10.125 9H1.875C1.46079 9 1.125 8.66421 1.125 8.25V2.625ZM10.125 2.625H1.875V8.25H10.125V2.625Z" fill="white"/>
<path fill-rule="evenodd" clip-rule="evenodd" d="M7.26575 8.33219C7.42748 8.20281 7.66346 8.22903 7.79284 8.39075L9.29284 10.2658C9.42222 10.4275 9.396 10.6635 9.23427 10.7928C9.07255 10.9222 8.83657 10.896 8.70719 10.7343L7.20719 8.85927C7.07781 8.69755 7.10403 8.46157 7.26575 8.33219Z" fill="white"/>
<path fill-rule="evenodd" clip-rule="evenodd" d="M4.73427 8.33219C4.896 8.46157 4.92222 8.69755 4.79284 8.85927L3.29284 10.7343C3.16346 10.896 2.92748 10.9222 2.76575 10.7928C2.60403 10.6635 2.57781 10.4275 2.70719 10.2658L4.20719 8.39075C4.33657 8.22903 4.57255 8.20281 4.73427 8.33219Z" fill="white"/>
<path fill-rule="evenodd" clip-rule="evenodd" d="M4.5 5.25C4.70711 5.25 4.875 5.41789 4.875 5.625V6.75C4.875 6.95711 4.70711 7.125 4.5 7.125C4.29289 7.125 4.125 6.95711 4.125 6.75V5.625C4.125 5.41789 4.29289 5.25 4.5 5.25Z" fill="white"/>
<path fill-rule="evenodd" clip-rule="evenodd" d="M6 4.5C6.20711 4.5 6.375 4.66789 6.375 4.875V6.75C6.375 6.95711 6.20711 7.125 6 7.125C5.79289 7.125 5.625 6.95711 5.625 6.75V4.875C5.625 4.66789 5.79289 4.5 6 4.5Z" fill="white"/>
<path fill-rule="evenodd" clip-rule="evenodd" d="M7.5 3.75C7.70711 3.75 7.875 3.91789 7.875 4.125V6.75C7.875 6.95711 7.70711 7.125 7.5 7.125C7.29289 7.125 7.125 6.95711 7.125 6.75V4.125C7.125 3.91789 7.29289 3.75 7.5 3.75Z" fill="white"/>
<path fill-rule="evenodd" clip-rule="evenodd" d="M6 0.75C6.20711 0.75 6.375 0.917893 6.375 1.125V2.25C6.375 2.45711 6.20711 2.625 6 2.625C5.79289 2.625 5.625 2.45711 5.625 2.25V1.125C5.625 0.917893 5.79289 0.75 6 0.75Z" fill="white"/>
</svg>
