<svg width="16" height="16" viewBox="0 0 16 16" fill="none" xmlns="http://www.w3.org/2000/svg">
<mask id="mask0_1_372" style="mask-type:alpha" maskUnits="userSpaceOnUse" x="0" y="0" width="16" height="16">
<rect width="16" height="16" fill="#D9D9D9"/>
</mask>
<g mask="url(#mask0_1_372)">
<path d="M0.666595 7.99996C0.666595 6.97774 0.858262 6.02218 1.2416 5.13329C1.62493 4.2444 2.14993 3.4694 2.8166 2.80829C3.48326 2.14718 4.26104 1.62496 5.14993 1.24163C6.03882 0.858293 6.98882 0.666626 7.99993 0.666626C9.01104 0.666626 9.96104 0.858293 10.8499 1.24163C11.7388 1.62496 12.5166 2.14718 13.1833 2.80829C13.8499 3.4694 14.3749 4.2444 14.7583 5.13329C15.1416 6.02218 15.3333 6.97774 15.3333 7.99996H13.9999C13.9999 7.16663 13.8416 6.38607 13.5249 5.65829C13.2083 4.93051 12.7777 4.2944 12.2333 3.74996C11.6888 3.20551 11.0527 2.77774 10.3249 2.46663C9.59715 2.15551 8.82215 1.99996 7.99993 1.99996C7.17771 1.99996 6.40271 2.15551 5.67493 2.46663C4.94715 2.77774 4.31104 3.20551 3.7666 3.74996C3.22215 4.2944 2.7916 4.93051 2.47493 5.65829C2.15826 6.38607 1.99993 7.16663 1.99993 7.99996H0.666595ZM3.33326 7.99996C3.33326 6.68885 3.78882 5.58329 4.69993 4.68329C5.61104 3.78329 6.71104 3.33329 7.99993 3.33329C9.28882 3.33329 10.3888 3.78329 11.2999 4.68329C12.211 5.58329 12.6666 6.68885 12.6666 7.99996H11.3333C11.3333 7.07774 11.0083 6.29163 10.3583 5.64163C9.70826 4.99163 8.92215 4.66663 7.99993 4.66663C7.07771 4.66663 6.2916 4.99163 5.6416 5.64163C4.9916 6.29163 4.6666 7.07774 4.6666 7.99996H3.33326ZM5.99993 14.9333L5.0666 14L7.33326 11.7333V9.53329C7.03326 9.39996 6.7916 9.1944 6.60826 8.91663C6.42493 8.63885 6.33326 8.33329 6.33326 7.99996C6.33326 7.53329 6.49437 7.13885 6.8166 6.81663C7.13882 6.4944 7.53326 6.33329 7.99993 6.33329C8.4666 6.33329 8.86104 6.4944 9.18326 6.81663C9.50548 7.13885 9.6666 7.53329 9.6666 7.99996C9.6666 8.33329 9.57493 8.63885 9.3916 8.91663C9.20826 9.1944 8.9666 9.39996 8.6666 9.53329V11.7333L10.9333 14L9.99993 14.9333L7.99993 12.9333L5.99993 14.9333Z" fill="white"/>
</g>
</svg>
