<svg width="12" height="12" viewBox="0 0 12 12" fill="none" xmlns="http://www.w3.org/2000/svg">
<path fill-rule="evenodd" clip-rule="evenodd" d="M6 4.125C4.96447 4.125 4.125 4.96447 4.125 6C4.125 7.03553 4.96447 7.875 6 7.875C7.03553 7.875 7.875 7.03553 7.875 6C7.875 4.96447 7.03553 4.125 6 4.125ZM3.375 6C3.375 4.55025 4.55025 3.375 6 3.375C7.44975 3.375 8.625 4.55025 8.625 6C8.625 7.44975 7.44975 8.625 6 8.625C4.55025 8.625 3.375 7.44975 3.375 6Z" fill="white"/>
<path fill-rule="evenodd" clip-rule="evenodd" d="M4.39419 0.99781C4.49718 0.964562 4.60952 0.977434 4.70232 1.03312L5.79849 1.69082C5.93285 1.68481 6.06742 1.68482 6.20178 1.69083L7.29339 1.03758C7.38543 0.982502 7.49664 0.969472 7.59892 1.00179C8.31528 1.22811 8.9739 1.60741 9.52917 2.11344C9.60876 2.18599 9.65333 2.28925 9.65152 2.39693L9.63007 3.6711C9.70409 3.78477 9.77202 3.9023 9.83355 4.02319L10.9447 4.64099C11.0383 4.69301 11.1052 4.78254 11.1285 4.88702C11.292 5.61925 11.2937 6.37833 11.1336 7.11129C11.1105 7.21667 11.0432 7.30703 10.9489 7.35929L9.8334 7.9771C9.7719 8.09788 9.70403 8.2153 9.63007 8.32888L9.65152 9.60305C9.65333 9.71074 9.60876 9.814 9.52915 9.88654C8.97505 10.3915 8.31924 10.7719 7.60584 11.0022C7.50284 11.0354 7.39051 11.0225 7.2977 10.9669L6.20154 10.3092C6.06717 10.3152 5.93261 10.3152 5.79825 10.3092L4.70664 10.9624C4.6146 11.0175 4.50338 11.0305 4.4011 10.9982C3.68475 10.7719 3.02613 10.3926 2.47086 9.88653C2.39126 9.81399 2.34669 9.71072 2.3485 9.60303L2.36998 8.33174C2.29639 8.21689 2.22854 8.09847 2.16668 7.9769L1.05529 7.35899C0.961724 7.30697 0.894853 7.21744 0.871525 7.11295C0.708041 6.38073 0.706316 5.62165 0.86647 4.88869C0.889495 4.78331 0.956781 4.69295 1.05114 4.64069L2.16663 4.02288C2.22812 3.9021 2.296 3.78467 2.36995 3.6711L2.3485 2.39693C2.34669 2.28924 2.39127 2.18598 2.47087 2.11343C3.02497 1.60851 3.68078 1.2281 4.39419 0.99781ZM3.10132 2.5578L3.12184 3.77649C3.12316 3.85544 3.09954 3.9328 3.05432 3.99754C2.95374 4.14154 2.86568 4.2939 2.79111 4.45294C2.75758 4.52443 2.70234 4.58353 2.63326 4.62179L1.56664 5.21253C1.47334 5.73341 1.47464 6.26686 1.57047 6.78729L2.6338 7.37849C2.70236 7.41661 2.75724 7.47526 2.79071 7.5462C2.86692 7.70769 2.9558 7.86289 3.05653 8.01033C3.10033 8.07444 3.12315 8.15057 3.12183 8.2282L3.10133 9.44213C3.50666 9.78454 3.97017 10.0514 4.46979 10.2301L5.51214 9.60633C5.57815 9.56683 5.65472 9.54858 5.73146 9.55407C5.91027 9.56686 6.08976 9.56686 6.26857 9.55407C6.34545 9.54857 6.42217 9.5669 6.48826 9.60655L7.53397 10.234C8.03195 10.0525 8.49398 9.78442 8.89871 9.44218L8.87819 8.22349C8.87686 8.14454 8.90049 8.06718 8.94571 8.00244C9.04629 7.85844 9.13435 7.70608 9.20892 7.54704C9.24244 7.47554 9.29768 7.41645 9.36676 7.37819L10.4334 6.78745C10.5267 6.26657 10.5254 5.73311 10.4296 5.21268L9.36623 4.62149C9.29739 4.58322 9.24235 4.52425 9.20892 4.45294C9.13435 4.2939 9.04629 4.14154 8.94571 3.99754C8.90049 3.9328 8.87686 3.85544 8.87819 3.77649L8.89871 2.55785C8.49338 2.21544 8.02986 1.94854 7.53024 1.76988L6.48789 2.39365C6.42187 2.43315 6.34531 2.4514 6.26857 2.44591C6.08976 2.43312 5.91027 2.43312 5.73146 2.44591C5.65457 2.45141 5.57786 2.43308 5.51176 2.39342L4.46606 1.766C3.96807 1.9475 3.50605 2.21556 3.10132 2.5578Z" fill="white"/>
</svg>
