<svg width="16" height="16" viewBox="0 0 16 16" fill="none" xmlns="http://www.w3.org/2000/svg">
<mask id="mask0_1_371" style="mask-type:alpha" maskUnits="userSpaceOnUse" x="0" y="0" width="16" height="16">
<rect width="16" height="16" fill="#D9D9D9"/>
</mask>
<g mask="url(#mask0_1_371)">
<path d="M4.33326 13.3333C3.32215 13.3333 2.45826 12.9833 1.7416 12.2833C1.02493 11.5833 0.666595 10.7278 0.666595 9.71666C0.666595 8.84999 0.927707 8.07777 1.44993 7.39999C1.97215 6.72221 2.65548 6.28888 3.49993 6.09999C3.77771 5.07777 4.33326 4.24999 5.1666 3.61666C5.99993 2.98332 6.94437 2.66666 7.99993 2.66666C9.29993 2.66666 10.4027 3.11943 11.3083 4.02499C12.2138 4.93055 12.6666 6.03332 12.6666 7.33332C13.4333 7.42221 14.0694 7.75277 14.5749 8.32499C15.0805 8.89721 15.3333 9.56666 15.3333 10.3333C15.3333 11.1667 15.0416 11.875 14.4583 12.4583C13.8749 13.0417 13.1666 13.3333 12.3333 13.3333H4.33326ZM4.33326 12H12.3333C12.7999 12 13.1944 11.8389 13.5166 11.5167C13.8388 11.1944 13.9999 10.8 13.9999 10.3333C13.9999 9.86666 13.8388 9.47221 13.5166 9.14999C13.1944 8.82777 12.7999 8.66666 12.3333 8.66666H11.3333V7.33332C11.3333 6.4111 11.0083 5.62499 10.3583 4.97499C9.70826 4.32499 8.92215 3.99999 7.99993 3.99999C7.07771 3.99999 6.2916 4.32499 5.6416 4.97499C4.9916 5.62499 4.6666 6.4111 4.6666 7.33332H4.33326C3.68882 7.33332 3.13882 7.5611 2.68326 8.01666C2.22771 8.47221 1.99993 9.02221 1.99993 9.66666C1.99993 10.3111 2.22771 10.8611 2.68326 11.3167C3.13882 11.7722 3.68882 12 4.33326 12Z" fill="white"/>
</g>
</svg>
