<svg width="12" height="12" viewBox="0 0 12 12" fill="none" xmlns="http://www.w3.org/2000/svg">
<path fill-rule="evenodd" clip-rule="evenodd" d="M1.34467 3.59467C1.48532 3.45402 1.67609 3.375 1.875 3.375H3.99998C4.16115 3.37566 4.31787 3.42791 4.4472 3.52408L4.44809 3.52474L5.75033 4.49908C5.7503 4.49906 5.75036 4.4991 5.75033 4.49908C5.75107 4.4996 5.75204 4.49997 5.75295 4.5H9C9.19891 4.5 9.38968 4.57902 9.53033 4.71967C9.67098 4.86032 9.75 5.05109 9.75 5.25V9.41719C9.75 9.60491 9.67543 9.78495 9.54269 9.91769C9.40995 10.0504 9.22991 10.125 9.04219 10.125H1.875C1.67609 10.125 1.48532 10.046 1.34467 9.90533C1.20402 9.76468 1.125 9.57391 1.125 9.375V4.125C1.125 3.92609 1.20402 3.73532 1.34467 3.59467ZM3.99705 4.125L1.875 4.125L1.875 9.375H9V5.25H5.75002C5.58885 5.24934 5.43213 5.19709 5.3028 5.10092L5.30191 5.10026L3.99967 4.12592C3.99964 4.1259 3.9997 4.12594 3.99967 4.12592C3.99893 4.1254 3.99796 4.12503 3.99705 4.125Z" fill="white"/>
<path fill-rule="evenodd" clip-rule="evenodd" d="M1.34467 3.59467C1.48532 3.45402 1.67609 3.375 1.875 3.375H3.99998C4.16115 3.37566 4.31787 3.42791 4.4472 3.52408L4.44809 3.52474L5.75033 4.49908C5.7503 4.49906 5.75036 4.4991 5.75033 4.49908C5.75107 4.4996 5.75204 4.49997 5.75295 4.5H9C9.19891 4.5 9.38968 4.57902 9.53033 4.71967C9.67098 4.86032 9.75 5.05109 9.75 5.25V9.41719C9.75 9.60491 9.67543 9.78495 9.54269 9.91769C9.40995 10.0504 9.22991 10.125 9.04219 10.125H1.875C1.67609 10.125 1.48532 10.046 1.34467 9.90533C1.20402 9.76468 1.125 9.57391 1.125 9.375V4.125C1.125 3.92609 1.20402 3.73532 1.34467 3.59467ZM3.99705 4.125L1.875 4.125L1.875 9.375H9V5.25H5.75002C5.58885 5.24934 5.43213 5.19709 5.3028 5.10092L5.30191 5.10026L3.99967 4.12592C3.99964 4.1259 3.9997 4.12594 3.99967 4.12592C3.99893 4.1254 3.99796 4.12503 3.99705 4.125Z" fill="white"/>
<path fill-rule="evenodd" clip-rule="evenodd" d="M2.84467 2.09467C2.98532 1.95402 3.17609 1.875 3.375 1.875H5.49998C5.66115 1.87566 5.81787 1.92791 5.9472 2.02408L5.94809 2.02474L7.25033 2.99908C7.2503 2.99906 7.25036 2.9991 7.25033 2.99908C7.25107 2.9996 7.25204 2.99997 7.25295 3H10.5C10.6989 3 10.8897 3.07902 11.0303 3.21967C11.171 3.36032 11.25 3.55109 11.25 3.75V7.91719C11.25 8.10491 11.1754 8.28495 11.0427 8.41769C10.9099 8.55043 10.7299 8.625 10.5422 8.625H9.375C9.16789 8.625 9 8.45711 9 8.25C9 8.04289 9.16789 7.875 9.375 7.875H10.5V3.75H7.25002C7.08885 3.74934 6.93213 3.69709 6.8028 3.60092L6.80191 3.60026L5.49967 2.62592C5.49964 2.6259 5.4997 2.62594 5.49967 2.62592C5.49893 2.6254 5.49796 2.62503 5.49705 2.625L3.375 2.625L3.375 3.75C3.375 3.95711 3.20711 4.125 3 4.125C2.79289 4.125 2.625 3.95711 2.625 3.75V2.625C2.625 2.42609 2.70402 2.23532 2.84467 2.09467Z" fill="white"/>
</svg>
