<svg width="12" height="12" viewBox="0 0 12 12" fill="none" xmlns="http://www.w3.org/2000/svg">
<path fill-rule="evenodd" clip-rule="evenodd" d="M1.875 8.625C1.46079 8.625 1.125 8.96079 1.125 9.375C1.125 9.78921 1.46079 10.125 1.875 10.125C2.28921 10.125 2.625 9.78921 2.625 9.375C2.625 8.96079 2.28921 8.625 1.875 8.625ZM0.375 9.375C0.375 8.54657 1.04657 7.875 1.875 7.875C2.70343 7.875 3.375 8.54657 3.375 9.375C3.375 10.2034 2.70343 10.875 1.875 10.875C1.04657 10.875 0.375 10.2034 0.375 9.375Z" fill="white"/>
<path fill-rule="evenodd" clip-rule="evenodd" d="M4.5 3.75C4.08579 3.75 3.75 4.08579 3.75 4.5C3.75 4.91421 4.08579 5.25 4.5 5.25C4.91421 5.25 5.25 4.91421 5.25 4.5C5.25 4.08579 4.91421 3.75 4.5 3.75ZM3 4.5C3 3.67157 3.67157 3 4.5 3C5.32843 3 6 3.67157 6 4.5C6 5.32843 5.32843 6 4.5 6C3.67157 6 3 5.32843 3 4.5Z" fill="white"/>
<path fill-rule="evenodd" clip-rule="evenodd" d="M7.5 6.75C7.08579 6.75 6.75 7.08579 6.75 7.5C6.75 7.91421 7.08579 8.25 7.5 8.25C7.91421 8.25 8.25 7.91421 8.25 7.5C8.25 7.08579 7.91421 6.75 7.5 6.75ZM6 7.5C6 6.67157 6.67157 6 7.5 6C8.32843 6 9 6.67157 9 7.5C9 8.32843 8.32843 9 7.5 9C6.67157 9 6 8.32843 6 7.5Z" fill="white"/>
<path fill-rule="evenodd" clip-rule="evenodd" d="M10.125 1.875C9.71079 1.875 9.375 2.21079 9.375 2.625C9.375 3.03921 9.71079 3.375 10.125 3.375C10.5392 3.375 10.875 3.03921 10.875 2.625C10.875 2.21079 10.5392 1.875 10.125 1.875ZM8.625 2.625C8.625 1.79657 9.29657 1.125 10.125 1.125C10.9534 1.125 11.625 1.79657 11.625 2.625C11.625 3.45343 10.9534 4.125 10.125 4.125C9.29657 4.125 8.625 3.45343 8.625 2.625Z" fill="white"/>
<path fill-rule="evenodd" clip-rule="evenodd" d="M4.14309 5.15874C4.32554 5.25675 4.39399 5.48411 4.29597 5.66656L2.73972 8.56343C2.64171 8.74588 2.41435 8.81432 2.23191 8.71631C2.04946 8.6183 1.98101 8.39094 2.07903 8.20849L3.63528 5.31162C3.73329 5.12917 3.96065 5.06073 4.14309 5.15874Z" fill="white"/>
<path fill-rule="evenodd" clip-rule="evenodd" d="M5.03171 5.03171C5.17816 4.88526 5.41559 4.88526 5.56204 5.03171L6.96829 6.43796C7.11474 6.58441 7.11474 6.82184 6.96829 6.96829C6.82184 7.11474 6.58441 7.11474 6.43796 6.96829L5.03171 5.56204C4.88526 5.41559 4.88526 5.17816 5.03171 5.03171Z" fill="white"/>
<path fill-rule="evenodd" clip-rule="evenodd" d="M9.76809 3.28374C9.95054 3.38175 10.019 3.60911 9.92097 3.79156L8.36472 6.68843C8.26671 6.87088 8.03935 6.93932 7.85691 6.84131C7.67446 6.7433 7.60601 6.51594 7.70403 6.33349L9.26028 3.43662C9.35829 3.25417 9.58565 3.18573 9.76809 3.28374Z" fill="white"/>
</svg>
