<svg width="12" height="12" viewBox="0 0 12 12" fill="none" xmlns="http://www.w3.org/2000/svg">
<path fill-rule="evenodd" clip-rule="evenodd" d="M2.5929 4.15862C3.00177 5.06723 3.76962 6.15519 4.80769 7.19325C5.84575 8.23132 6.93371 8.99917 7.84232 9.40804C8.29791 9.61306 8.68963 9.71929 8.99637 9.73599C9.30335 9.75269 9.48115 9.67924 9.58066 9.57974C9.68016 9.48023 9.75361 9.30243 9.7369 8.99545C9.72021 8.68871 9.61398 8.29699 9.40896 7.8414C9.00009 6.93279 8.23224 5.84483 7.19417 4.80677C6.15611 3.7687 5.06815 3.00085 4.15954 2.59198C3.70395 2.38696 3.31223 2.28073 3.00549 2.26404C2.69851 2.24733 2.5207 2.32078 2.4212 2.42028C2.3217 2.51979 2.24825 2.69759 2.26495 3.00457C2.28164 3.31131 2.38788 3.70303 2.5929 4.15862ZM1.51606 3.04532C1.4926 2.61421 1.58765 2.19318 1.89087 1.88995C2.19409 1.58673 2.61513 1.49169 3.04624 1.51514C3.47759 1.53862 3.9632 1.68119 4.46732 1.90804C5.47813 2.36291 6.63909 3.19103 7.7245 4.27644C8.80991 5.36185 9.63803 6.52281 10.0929 7.53362C10.3198 8.03774 10.4623 8.52335 10.4858 8.9547C10.5093 9.38581 10.4142 9.80684 10.111 10.1101C9.80776 10.4133 9.38673 10.5083 8.95562 10.4849C8.52427 10.4614 8.03866 10.3188 7.53454 10.092C6.52373 9.63712 5.36277 8.80899 4.27736 7.72358C3.19194 6.63817 2.36382 5.47721 1.90896 4.4664C1.68211 3.96228 1.53953 3.47667 1.51606 3.04532Z" fill="white"/>
<path fill-rule="evenodd" clip-rule="evenodd" d="M2.26495 8.99543C2.24825 9.30241 2.3217 9.48021 2.4212 9.57972C2.5207 9.67922 2.69851 9.75267 3.00549 9.73596C3.31222 9.71927 3.70395 9.61304 4.15954 9.40802C5.06815 8.99915 6.15611 8.2313 7.19417 7.19323C8.23224 6.15517 9.00009 5.06721 9.40896 4.1586C9.61397 3.70301 9.72021 3.31129 9.7369 3.00455C9.75361 2.69757 9.68016 2.51977 9.58066 2.42026C9.48115 2.32076 9.30334 2.24731 8.99637 2.26401C8.68963 2.28071 8.29791 2.38694 7.84231 2.59196C6.93371 3.00083 5.84575 3.76868 4.80769 4.80675C3.76962 5.84481 3.00177 6.93277 2.5929 7.84138C2.38788 8.29697 2.28164 8.68869 2.26495 8.99543ZM1.90896 7.5336C2.36382 6.52279 3.19194 5.36183 4.27736 4.27642C5.36277 3.19101 6.52373 2.36288 7.53454 1.90802C8.03866 1.68117 8.52427 1.53859 8.95562 1.51512C9.38673 1.49166 9.80776 1.58671 10.111 1.88993C10.4142 2.19316 10.5093 2.61419 10.4858 3.0453C10.4623 3.47665 10.3198 3.96226 10.0929 4.46638C9.63803 5.47719 8.80991 6.63815 7.7245 7.72356C6.63909 8.80897 5.47813 9.63709 4.46732 10.092C3.9632 10.3188 3.47759 10.4614 3.04624 10.4849C2.61513 10.5083 2.19409 10.4133 1.89087 10.11C1.58765 9.80682 1.4926 9.38579 1.51606 8.95468C1.53953 8.52333 1.68211 8.03772 1.90896 7.5336Z" fill="white"/>
<path d="M6 6.5625C6.31066 6.5625 6.5625 6.31066 6.5625 6C6.5625 5.68934 6.31066 5.4375 6 5.4375C5.68934 5.4375 5.4375 5.68934 5.4375 6C5.4375 6.31066 5.68934 6.5625 6 6.5625Z" fill="white"/>
</svg>
