<svg width="12" height="12" viewBox="0 0 12 12" fill="none" xmlns="http://www.w3.org/2000/svg">
<path fill-rule="evenodd" clip-rule="evenodd" d="M1.17608 8.06105C1.28044 7.88215 1.51006 7.82173 1.68895 7.92608L6 10.4409L10.311 7.92608C10.4899 7.82173 10.7196 7.88215 10.8239 8.06105C10.9283 8.23994 10.8678 8.46956 10.689 8.57392L6.18895 11.1989C6.07219 11.267 5.92781 11.267 5.81105 11.1989L1.31105 8.57392C1.13215 8.46956 1.07173 8.23994 1.17608 8.06105Z" fill="white"/>
<path fill-rule="evenodd" clip-rule="evenodd" d="M1.17608 5.81105C1.28044 5.63215 1.51006 5.57173 1.68895 5.67608L6 8.19086L10.311 5.67608C10.4899 5.57173 10.7196 5.63215 10.8239 5.81105C10.9283 5.98994 10.8678 6.21956 10.689 6.32392L6.18895 8.94892C6.07219 9.01703 5.92781 9.01703 5.81105 8.94892L1.31105 6.32392C1.13215 6.21956 1.07173 5.98994 1.17608 5.81105Z" fill="white"/>
<path fill-rule="evenodd" clip-rule="evenodd" d="M5.81105 0.801083C5.92781 0.732972 6.07219 0.732972 6.18895 0.801083L10.689 3.42608C10.8042 3.49329 10.875 3.61662 10.875 3.75C10.875 3.88338 10.8042 4.00671 10.689 4.07392L6.18895 6.69892C6.07219 6.76703 5.92781 6.76703 5.81105 6.69892L1.31105 4.07392C1.19584 4.00671 1.125 3.88338 1.125 3.75C1.125 3.61662 1.19584 3.49329 1.31105 3.42608L5.81105 0.801083ZM2.24424 3.75L6 5.94086L9.75576 3.75L6 1.55914L2.24424 3.75Z" fill="white"/>
</svg>
