<svg width="16" height="16" viewBox="0 0 16 16" fill="none" xmlns="http://www.w3.org/2000/svg">
<mask id="mask0_1_370" style="mask-type:alpha" maskUnits="userSpaceOnUse" x="0" y="0" width="16" height="16">
<rect width="16" height="16" fill="#D9D9D9"/>
</mask>
<g mask="url(#mask0_1_370)">
<path d="M3.26674 11.4C2.6334 10.7333 2.15285 9.99446 1.82507 9.18335C1.49729 8.37224 1.3334 7.53335 1.3334 6.66668C1.3334 5.80002 1.49729 4.96113 1.82507 4.15002C2.15285 3.33891 2.6334 2.60002 3.26674 1.93335L4.06674 2.73335C3.5334 3.26668 3.1334 3.88057 2.86674 4.57502C2.60007 5.26946 2.46674 5.96668 2.46674 6.66668C2.46674 7.36668 2.60007 8.06391 2.86674 8.75835C3.1334 9.45279 3.5334 10.0667 4.06674 10.6L3.26674 11.4ZM4.86674 9.80002C4.4334 9.36668 4.10285 8.87779 3.87507 8.33335C3.64729 7.78891 3.5334 7.23335 3.5334 6.66668C3.5334 6.10002 3.64729 5.54446 3.87507 5.00002C4.10285 4.45557 4.4334 3.96668 4.86674 3.53335L5.66674 4.33335C5.3334 4.63335 5.0834 4.98891 4.91674 5.40002C4.75007 5.81113 4.66674 6.23335 4.66674 6.66668C4.66674 7.06668 4.75007 7.47224 4.91674 7.88335C5.0834 8.29446 5.3334 8.66668 5.66674 9.00002L4.86674 9.80002ZM4.66674 14.6667L6.91674 7.91668C6.73896 7.76113 6.59729 7.57779 6.49174 7.36668C6.38618 7.15557 6.3334 6.92224 6.3334 6.66668C6.3334 6.20002 6.49452 5.80557 6.81674 5.48335C7.13896 5.16113 7.5334 5.00002 8.00007 5.00002C8.46674 5.00002 8.86118 5.16113 9.1834 5.48335C9.50563 5.80557 9.66674 6.20002 9.66674 6.66668C9.66674 6.92224 9.61396 7.15557 9.5084 7.36668C9.40285 7.57779 9.26118 7.76113 9.0834 7.91668L11.3334 14.6667H10.0001L9.56674 13.3334H6.45007L6.00007 14.6667H4.66674ZM6.8834 12H9.11674L8.00007 8.66668L6.8834 12ZM11.1334 9.80002L10.3334 9.00002C10.6667 8.70002 10.9167 8.34446 11.0834 7.93335C11.2501 7.52224 11.3334 7.10002 11.3334 6.66668C11.3334 6.26668 11.2501 5.86113 11.0834 5.45002C10.9167 5.03891 10.6667 4.66668 10.3334 4.33335L11.1334 3.53335C11.5667 3.96668 11.889 4.45557 12.1001 5.00002C12.3112 5.54446 12.4334 6.10002 12.4667 6.66668C12.4667 7.23335 12.3528 7.78891 12.1251 8.33335C11.8973 8.87779 11.5667 9.36668 11.1334 9.80002ZM12.7334 11.4L11.9334 10.6C12.4667 10.0667 12.8667 9.45279 13.1334 8.75835C13.4001 8.06391 13.5334 7.36668 13.5334 6.66668C13.5334 5.96668 13.4001 5.26946 13.1334 4.57502C12.8667 3.88057 12.4667 3.26668 11.9334 2.73335L12.7334 1.93335C13.3667 2.60002 13.8473 3.33891 14.1751 4.15002C14.5028 4.96113 14.6667 5.80002 14.6667 6.66668C14.6667 7.53335 14.5112 8.37224 14.2001 9.18335C13.889 9.99446 13.4001 10.7333 12.7334 11.4Z" fill="white"/>
</g>
</svg>
