<svg width="12" height="12" viewBox="0 0 12 12" fill="none" xmlns="http://www.w3.org/2000/svg">
<path fill-rule="evenodd" clip-rule="evenodd" d="M3.5625 2.25C2.83763 2.25 2.25 2.83763 2.25 3.5625C2.25 4.28737 2.83763 4.875 3.5625 4.875C4.28737 4.875 4.875 4.28737 4.875 3.5625C4.875 2.83763 4.28737 2.25 3.5625 2.25ZM1.5 3.5625C1.5 2.42341 2.42341 1.5 3.5625 1.5C4.70159 1.5 5.625 2.42341 5.625 3.5625C5.625 4.70159 4.70159 5.625 3.5625 5.625C2.42341 5.625 1.5 4.70159 1.5 3.5625Z" fill="white"/>
<path fill-rule="evenodd" clip-rule="evenodd" d="M8.4375 2.25C7.71263 2.25 7.125 2.83763 7.125 3.5625C7.125 4.28737 7.71263 4.875 8.4375 4.875C9.16237 4.875 9.75 4.28737 9.75 3.5625C9.75 2.83763 9.16237 2.25 8.4375 2.25ZM6.375 3.5625C6.375 2.42341 7.29841 1.5 8.4375 1.5C9.57659 1.5 10.5 2.42341 10.5 3.5625C10.5 4.70159 9.57659 5.625 8.4375 5.625C7.29841 5.625 6.375 4.70159 6.375 3.5625Z" fill="white"/>
<path fill-rule="evenodd" clip-rule="evenodd" d="M3.5625 7.125C2.83763 7.125 2.25 7.71263 2.25 8.4375C2.25 9.16237 2.83763 9.75 3.5625 9.75C4.28737 9.75 4.875 9.16237 4.875 8.4375C4.875 7.71263 4.28737 7.125 3.5625 7.125ZM1.5 8.4375C1.5 7.29841 2.42341 6.375 3.5625 6.375C4.70159 6.375 5.625 7.29841 5.625 8.4375C5.625 9.57659 4.70159 10.5 3.5625 10.5C2.42341 10.5 1.5 9.57659 1.5 8.4375Z" fill="white"/>
<path fill-rule="evenodd" clip-rule="evenodd" d="M8.4375 7.125C7.71263 7.125 7.125 7.71263 7.125 8.4375C7.125 9.16237 7.71263 9.75 8.4375 9.75C9.16237 9.75 9.75 9.16237 9.75 8.4375C9.75 7.71263 9.16237 7.125 8.4375 7.125ZM6.375 8.4375C6.375 7.29841 7.29841 6.375 8.4375 6.375C9.57659 6.375 10.5 7.29841 10.5 8.4375C10.5 9.57659 9.57659 10.5 8.4375 10.5C7.29841 10.5 6.375 9.57659 6.375 8.4375Z" fill="white"/>
</svg>
