<svg width="20" height="20" viewBox="0 0 20 20" fill="none" xmlns="http://www.w3.org/2000/svg">
<mask id="mask0_285_716" style="mask-type:alpha" maskUnits="userSpaceOnUse" x="0" y="0" width="20" height="20">
<rect width="20" height="20" fill="#D9D9D9"/>
</mask>
<g mask="url(#mask0_285_716)">
<path d="M8.67012 9.33963H6.48283C6.30241 9.33963 6.14699 9.27539 6.01658 9.14692C5.88616 9.01859 5.82095 8.85949 5.82095 8.66963V6.48234C5.82095 6.30192 5.88512 6.1465 6.01345 6.01609C6.14178 5.88567 6.30088 5.82046 6.49074 5.82046H8.67824C8.85852 5.82046 9.01387 5.88463 9.14428 6.01296C9.27484 6.1413 9.34012 6.30039 9.34012 6.49025V8.67775C9.34012 8.85803 9.27588 9.01338 9.14741 9.1438C9.01908 9.27435 8.85998 9.33963 8.67012 9.33963ZM8.67012 14.1792H6.48283C6.30241 14.1792 6.14699 14.115 6.01658 13.9867C5.88616 13.8584 5.82095 13.6993 5.82095 13.5094V11.3219C5.82095 11.1416 5.88512 10.9863 6.01345 10.8559C6.14178 10.7253 6.30088 10.66 6.49074 10.66H8.67824C8.85852 10.66 9.01387 10.7243 9.14428 10.8528C9.27484 10.9811 9.34012 11.1402 9.34012 11.33V13.5173C9.34012 13.6978 9.27588 13.8532 9.14741 13.9836C9.01908 14.114 8.85998 14.1792 8.67012 14.1792ZM13.5099 9.33963H11.3224C11.1421 9.33963 10.9868 9.27539 10.8564 9.14692C10.7258 9.01859 10.6605 8.85949 10.6605 8.66963V6.48234C10.6605 6.30192 10.7248 6.1465 10.8532 6.01609C10.9816 5.88567 11.1407 5.82046 11.3305 5.82046H13.5178C13.6982 5.82046 13.8537 5.88463 13.9841 6.01296C14.1145 6.1413 14.1797 6.30039 14.1797 6.49025V8.67775C14.1797 8.85803 14.1155 9.01338 13.9872 9.1438C13.8589 9.27435 13.6998 9.33963 13.5099 9.33963ZM13.5099 14.1792H11.3224C11.1421 14.1792 10.9868 14.115 10.8564 13.9867C10.7258 13.8584 10.6605 13.6993 10.6605 13.5094V11.3219C10.6605 11.1416 10.7248 10.9863 10.8532 10.8559C10.9816 10.7253 11.1407 10.66 11.3305 10.66H13.5178C13.6982 10.66 13.8537 10.7243 13.9841 10.8528C14.1145 10.9811 14.1797 11.1402 14.1797 11.33V13.5173C14.1797 13.6978 14.1155 13.8532 13.9872 13.9836C13.8589 14.114 13.6998 14.1792 13.5099 14.1792ZM6.90408 8.2563H8.25678V6.90359H6.90408V8.2563ZM11.7439 8.2563H13.0966V6.90359H11.7439V8.2563ZM6.90408 13.0961H8.25678V11.7434H6.90408V13.0961ZM11.7439 13.0961H13.0966V11.7434H11.7439V13.0961ZM4.75678 16.5832C4.38164 16.5832 4.06456 16.4537 3.80553 16.1946C3.54651 15.9356 3.41699 15.6185 3.41699 15.2434V4.7563C3.41699 4.38116 3.54651 4.06407 3.80553 3.80505C4.06456 3.54602 4.38164 3.4165 4.75678 3.4165H15.2439C15.619 3.4165 15.9361 3.54602 16.1951 3.80505C16.4541 4.06407 16.5837 4.38116 16.5837 4.7563V15.2434C16.5837 15.6185 16.4541 15.9356 16.1951 16.1946C15.9361 16.4537 15.619 16.5832 15.2439 16.5832H4.75678ZM4.75678 15.4998H15.2439C15.308 15.4998 15.3668 15.4731 15.4201 15.4196C15.4736 15.3663 15.5003 15.3075 15.5003 15.2434V4.7563C15.5003 4.69213 15.4736 4.63338 15.4201 4.58005C15.3668 4.52657 15.308 4.49984 15.2439 4.49984H4.75678C4.69262 4.49984 4.63387 4.52657 4.58053 4.58005C4.52706 4.63338 4.50033 4.69213 4.50033 4.7563V15.2434C4.50033 15.3075 4.52706 15.3663 4.58053 15.4196C4.63387 15.4731 4.69262 15.4998 4.75678 15.4998Z" fill="#1A1A1A"/>
</g>
</svg>
