<svg width="20" height="20" viewBox="0 0 20 20" fill="none" xmlns="http://www.w3.org/2000/svg">
<mask id="mask0_236_1235" style="mask-type:alpha" maskUnits="userSpaceOnUse" x="0" y="0" width="20" height="20">
<rect width="20" height="20" fill="#D9D9D9"/>
</mask>
<g mask="url(#mask0_236_1235)">
<path d="M4.5478 16.5833C4.17266 16.5833 3.85558 16.4538 3.59655 16.1948C3.33752 15.9358 3.20801 15.6187 3.20801 15.2435V4.75646C3.20801 4.38132 3.33752 4.06424 3.59655 3.80521C3.85558 3.54618 4.17266 3.41667 4.5478 3.41667H10.6409C10.7858 3.41667 10.9112 3.46819 11.0172 3.57125C11.123 3.67431 11.1759 3.80194 11.1759 3.95417C11.1759 4.10653 11.124 4.23556 11.0203 4.34125C10.9164 4.44708 10.7877 4.5 10.6343 4.5H4.5478C4.47294 4.5 4.41148 4.52403 4.36342 4.57208C4.31537 4.62014 4.29134 4.6816 4.29134 4.75646V15.2435C4.29134 15.3184 4.31537 15.3799 4.36342 15.4279C4.41148 15.476 4.47294 15.5 4.5478 15.5H15.0349C15.1097 15.5 15.1712 15.476 15.2193 15.4279C15.2673 15.3799 15.2913 15.3184 15.2913 15.2435V9.15042C15.2913 9.00556 15.3429 8.88014 15.4459 8.77417C15.549 8.66833 15.6766 8.61542 15.8288 8.61542C15.9812 8.61542 16.1102 8.66729 16.2159 8.77104C16.3218 8.87493 16.3747 9.00361 16.3747 9.15708V15.2435C16.3747 15.6187 16.2452 15.9358 15.9861 16.1948C15.7271 16.4538 15.41 16.5833 15.0349 16.5833H4.5478ZM6.64155 8.20833C6.48933 8.20833 6.3603 8.26028 6.25447 8.36417C6.14877 8.46792 6.09592 8.59653 6.09592 8.75V13.25C6.09592 13.4035 6.14738 13.5321 6.2503 13.6358C6.35335 13.7397 6.48106 13.7917 6.63342 13.7917C6.78565 13.7917 6.91467 13.7397 7.02051 13.6358C7.1262 13.5321 7.17905 13.4035 7.17905 13.25V8.75C7.17905 8.59653 7.12759 8.46792 7.02467 8.36417C6.92162 8.26028 6.79391 8.20833 6.64155 8.20833ZM9.79551 6.20833C9.64315 6.20833 9.51412 6.26028 9.40842 6.36417C9.30259 6.46792 9.24967 6.59653 9.24967 6.75V13.25C9.24967 13.4035 9.3012 13.5321 9.40426 13.6358C9.50731 13.7397 9.63495 13.7917 9.78717 13.7917C9.93954 13.7917 10.0686 13.7397 10.1743 13.6358C10.2801 13.5321 10.333 13.4035 10.333 13.25V6.75C10.333 6.59653 10.2815 6.46792 10.1784 6.36417C10.0754 6.26028 9.94773 6.20833 9.79551 6.20833ZM12.9493 10.2083C12.7969 10.2083 12.6679 10.2603 12.5622 10.3642C12.4563 10.4679 12.4034 10.5965 12.4034 10.75V13.25C12.4034 13.4035 12.455 13.5321 12.558 13.6358C12.6611 13.7397 12.7888 13.7917 12.9411 13.7917C13.0934 13.7917 13.2224 13.7397 13.3282 13.6358C13.4339 13.5321 13.4868 13.4035 13.4868 13.25V10.75C13.4868 10.5965 13.4352 10.4679 13.3322 10.3642C13.2293 10.2603 13.1016 10.2083 12.9493 10.2083ZM14.2128 5.58333H13.2522C13.098 5.58333 12.9688 5.53139 12.8645 5.4275C12.7602 5.32361 12.708 5.19493 12.708 5.04146C12.708 4.88785 12.7602 4.75924 12.8645 4.65562C12.9688 4.55187 13.098 4.5 13.2522 4.5H14.2128V3.54167C14.2128 3.38819 14.265 3.25951 14.3695 3.15562C14.4738 3.05187 14.602 3 14.7543 3C14.9066 3 15.0342 3.05187 15.137 3.15562C15.2399 3.25951 15.2913 3.38819 15.2913 3.54167V4.5H16.2453C16.3975 4.5 16.5266 4.55153 16.6324 4.65458C16.7384 4.75764 16.7913 4.88528 16.7913 5.0375C16.7913 5.18986 16.7394 5.31813 16.6355 5.42229C16.5318 5.52646 16.4031 5.57854 16.2497 5.57854H15.2913V6.53917C15.2913 6.69333 15.2394 6.82257 15.1355 6.92687C15.0316 7.03118 14.9029 7.08333 14.7495 7.08333C14.6 7.08333 14.4732 7.03139 14.369 6.9275C14.2649 6.82375 14.2128 6.69514 14.2128 6.54167V5.58333Z" fill="#5A5A5A"/>
</g>
</svg>
