<svg width="20" height="20" viewBox="0 0 20 20" fill="none" xmlns="http://www.w3.org/2000/svg">
<mask id="mask0_236_1249" style="mask-type:alpha" maskUnits="userSpaceOnUse" x="0" y="0" width="20" height="20">
<rect width="20" height="20" fill="#D9D9D9"/>
</mask>
<g mask="url(#mask0_236_1249)">
<path d="M9.98991 16.5832C8.11338 16.5832 6.54873 16.3299 5.29595 15.8234C4.04331 15.317 3.41699 14.6824 3.41699 13.9196V5.99984C3.41699 5.27873 4.05616 4.66789 5.33449 4.16734C6.61283 3.66678 8.16463 3.4165 9.98991 3.4165C11.8152 3.4165 13.3705 3.66678 14.6557 4.16734C15.941 4.66789 16.5837 5.27873 16.5837 5.99984V13.9196C16.5837 14.6824 15.9539 15.317 14.6943 15.8234C13.4346 16.3299 11.8664 16.5832 9.98991 16.5832ZM9.9997 7.4438C11.1732 7.4438 12.3062 7.29984 13.3987 7.01192C14.491 6.724 15.1836 6.3813 15.4764 5.9838C15.1889 5.58963 14.4968 5.24373 13.4001 4.94609C12.3035 4.64859 11.17 4.49984 9.9997 4.49984C8.83234 4.49984 7.68963 4.64727 6.57158 4.94213C5.45352 5.23699 4.76574 5.57352 4.50824 5.95171C4.76046 6.35449 5.43595 6.70387 6.5347 6.99984C7.63359 7.29581 8.78859 7.4438 9.9997 7.4438ZM10.0003 11.4678C10.5784 11.4678 11.1339 11.4365 11.667 11.374C12.2 11.3115 12.7019 11.2234 13.1726 11.1096C13.6432 10.9959 14.075 10.8495 14.4682 10.6705C14.8614 10.4916 15.2055 10.2883 15.5003 10.0607V7.33317C15.1742 7.5222 14.8085 7.6915 14.4032 7.84109C13.9978 7.99067 13.5575 8.11435 13.0824 8.21213C12.6071 8.30991 12.1087 8.38414 11.5872 8.43484C11.0657 8.48567 10.5332 8.51109 9.98991 8.51109C9.43602 8.51109 8.89651 8.48435 8.37137 8.43088C7.84623 8.37755 7.35046 8.30199 6.88408 8.20421C6.41783 8.10643 5.98116 7.98331 5.57408 7.83484C5.16699 7.68623 4.80908 7.519 4.50033 7.33317V10.0607C4.80088 10.2875 5.14289 10.4892 5.52637 10.6659C5.9097 10.8425 6.33533 10.9878 6.80324 11.1015C7.27116 11.2154 7.7738 11.3049 8.31116 11.37C8.84866 11.4352 9.41171 11.4678 10.0003 11.4678ZM10.007 15.4998C10.646 15.4998 11.2722 15.4594 11.8855 15.3786C12.4987 15.2978 13.0562 15.1871 13.558 15.0465C14.0598 14.9059 14.4833 14.7423 14.8285 14.5557C15.1736 14.369 15.3975 14.1725 15.5003 13.9661V11.3732C15.1742 11.5622 14.8085 11.7315 14.4032 11.8811C13.9978 12.0308 13.5575 12.1546 13.0824 12.2523C12.6071 12.3501 12.1087 12.4244 11.5872 12.475C11.0657 12.5257 10.5332 12.5511 9.98991 12.5511C9.43602 12.5511 8.89651 12.5244 8.37137 12.4711C7.84623 12.4176 7.35046 12.342 6.88408 12.2442C6.41783 12.1464 5.98116 12.0233 5.57408 11.8748C5.16699 11.7264 4.80908 11.5591 4.50033 11.3732V13.9998C4.60713 14.2018 4.83498 14.3944 5.18387 14.5775C5.53262 14.7607 5.95671 14.9191 6.45616 15.0528C6.95574 15.1862 7.51269 15.2941 8.12699 15.3765C8.7413 15.4587 9.36796 15.4998 10.007 15.4998Z" fill="white"/>
</g>
</svg>
