<svg width="20" height="20" viewBox="0 0 20 20" fill="none" xmlns="http://www.w3.org/2000/svg">
<path d="M6.71505 13.9742C6.92407 13.9742 7.09914 13.9035 7.24025 13.7621C7.38123 13.6207 7.45171 13.4455 7.45171 13.2365C7.45171 13.0275 7.38102 12.8524 7.23963 12.7113C7.09824 12.5703 6.92303 12.4998 6.714 12.4998C6.50498 12.4998 6.32998 12.5705 6.189 12.7119C6.04789 12.8533 5.97734 13.0285 5.97734 13.2375C5.97734 13.4466 6.04803 13.6216 6.18942 13.7625C6.33095 13.9036 6.50616 13.9742 6.71505 13.9742ZM6.71505 10.7369C6.92407 10.7369 7.09914 10.6662 7.24025 10.5248C7.38123 10.3834 7.45171 10.2082 7.45171 9.99921C7.45171 9.79018 7.38102 9.61518 7.23963 9.47421C7.09824 9.33323 6.92303 9.26275 6.714 9.26275C6.50498 9.26275 6.32998 9.33344 6.189 9.47483C6.04789 9.61622 5.97734 9.79143 5.97734 10.0004C5.97734 10.2095 6.04803 10.3845 6.18942 10.5254C6.33095 10.6664 6.50616 10.7369 6.71505 10.7369ZM6.71505 7.49983C6.92407 7.49983 7.09914 7.42914 7.24025 7.28775C7.38123 7.14636 7.45171 6.97115 7.45171 6.76212C7.45171 6.55309 7.38102 6.37809 7.23963 6.23712C7.09824 6.09601 6.92303 6.02546 6.714 6.02546C6.50498 6.02546 6.32998 6.09615 6.189 6.23754C6.04789 6.37893 5.97734 6.55414 5.97734 6.76316C5.97734 6.97219 6.04803 7.14726 6.18942 7.28837C6.33095 7.42934 6.50616 7.49983 6.71505 7.49983ZM9.87171 13.8619H13.3653C13.5423 13.8619 13.6907 13.802 13.8105 13.6821C13.9303 13.5624 13.9903 13.4139 13.9903 13.2367C13.9903 13.0596 13.9303 12.9112 13.8105 12.7915C13.6907 12.6719 13.5423 12.6121 13.3653 12.6121H9.87171C9.69463 12.6121 9.54616 12.672 9.4263 12.7917C9.30657 12.9116 9.24671 13.0601 9.24671 13.2373C9.24671 13.4144 9.30657 13.5628 9.4263 13.6825C9.54616 13.8021 9.69463 13.8619 9.87171 13.8619ZM9.87171 10.6248H13.3653C13.5423 10.6248 13.6907 10.5649 13.8105 10.445C13.9303 10.3252 13.9903 10.1767 13.9903 9.99962C13.9903 9.8224 13.9303 9.674 13.8105 9.55441C13.6907 9.43469 13.5423 9.37483 13.3653 9.37483H9.87171C9.69463 9.37483 9.54616 9.43476 9.4263 9.55462C9.30657 9.67448 9.24671 9.82296 9.24671 10C9.24671 10.1773 9.30657 10.3257 9.4263 10.4452C9.54616 10.565 9.69463 10.6248 9.87171 10.6248ZM9.87171 7.38754H13.3653C13.5423 7.38754 13.6907 7.32768 13.8105 7.20796C13.9303 7.08809 13.9903 6.93955 13.9903 6.76233C13.9903 6.58525 13.9303 6.43684 13.8105 6.31712C13.6907 6.19754 13.5423 6.13775 13.3653 6.13775H9.87171C9.69463 6.13775 9.54616 6.19768 9.4263 6.31754C9.30657 6.43726 9.24671 6.58573 9.24671 6.76296C9.24671 6.94004 9.30657 7.08844 9.4263 7.20816C9.54616 7.32775 9.69463 7.38754 9.87171 7.38754ZM4.42296 17.0832C4.00199 17.0832 3.64567 16.9373 3.354 16.6457C3.06234 16.354 2.9165 15.9977 2.9165 15.5767V4.42296C2.9165 4.00198 3.06234 3.64566 3.354 3.354C3.64567 3.06233 4.00199 2.9165 4.42296 2.9165H15.5767C15.9977 2.9165 16.354 3.06233 16.6457 3.354C16.9373 3.64566 17.0832 4.00198 17.0832 4.42296V15.5767C17.0832 15.9977 16.9373 16.354 16.6457 16.6457C16.354 16.9373 15.9977 17.0832 15.5767 17.0832H4.42296ZM4.42296 15.8332H15.5767C15.6409 15.8332 15.6996 15.8064 15.753 15.7529C15.8064 15.6996 15.8332 15.6409 15.8332 15.5767V4.42296C15.8332 4.35879 15.8064 4.30004 15.753 4.2467C15.6996 4.19323 15.6409 4.1665 15.5767 4.1665H4.42296C4.3588 4.1665 4.30005 4.19323 4.24671 4.2467C4.19324 4.30004 4.1665 4.35879 4.1665 4.42296V15.5767C4.1665 15.6409 4.19324 15.6996 4.24671 15.7529C4.30005 15.8064 4.3588 15.8332 4.42296 15.8332Z" fill="#5A5A5A"/>
</svg>
