<svg width="20" height="20" viewBox="0 0 20 20" fill="none" xmlns="http://www.w3.org/2000/svg">
<mask id="mask0_285_707" style="mask-type:alpha" maskUnits="userSpaceOnUse" x="0" y="0" width="20" height="20">
<rect width="20" height="20" fill="white"/>
</mask>
<g mask="url(#mask0_285_707)">
<path d="M14.4863 7.89747C13.8995 7.89747 13.3862 7.7128 12.9463 7.34347C12.5063 6.97425 12.2389 6.5093 12.1441 5.94863H7.83879C7.74312 6.43497 7.52584 6.84863 7.18696 7.18963C6.84807 7.53075 6.43546 7.74908 5.94912 7.84463V12.1436C6.50979 12.2384 6.97473 12.5058 7.34396 12.9458C7.71329 13.3857 7.89796 13.899 7.89796 14.4858C7.89796 15.1517 7.66757 15.715 7.20679 16.1756C6.74612 16.6363 6.18246 16.8666 5.51579 16.8666C4.84912 16.8666 4.28546 16.6363 3.82479 16.1756C3.36412 15.715 3.13379 15.1517 3.13379 14.4858C3.13379 13.899 3.3184 13.3857 3.68762 12.9458C4.05684 12.5058 4.52179 12.2384 5.08246 12.1436V7.84613C4.52179 7.75125 4.05684 7.48663 3.68762 7.0523C3.3184 6.61797 3.13379 6.10763 3.13379 5.5213C3.13379 4.85063 3.36462 4.28497 3.82629 3.8243C4.28784 3.36363 4.8509 3.1333 5.51546 3.1333C6.10168 3.1333 6.61196 3.31791 7.04629 3.68713C7.48073 4.05636 7.74534 4.5213 7.84012 5.08197H12.1441C12.2389 4.5213 12.5063 4.05636 12.9463 3.68713C13.3862 3.31791 13.8995 3.1333 14.4863 3.1333C15.1477 3.1333 15.7099 3.36474 16.1728 3.82763C16.6357 4.29052 16.8671 4.85308 16.8671 5.5153C16.8671 6.18197 16.6357 6.74563 16.1728 7.2063C15.7099 7.66708 15.1477 7.89747 14.4863 7.89747ZM5.51179 16.0063C5.93368 16.0063 6.2924 15.8595 6.58796 15.566C6.88351 15.2724 7.03129 14.9133 7.03129 14.4886C7.03129 14.0667 6.88351 13.708 6.58796 13.4125C6.2924 13.1169 5.93368 12.9691 5.51179 12.9691C5.08712 12.9691 4.72801 13.1169 4.43446 13.4125C4.1409 13.708 3.99412 14.0667 3.99412 14.4886C3.99412 14.9133 4.1409 15.2724 4.43446 15.566C4.72801 15.8595 5.08712 16.0063 5.51179 16.0063ZM5.51179 7.03713C5.93368 7.03713 6.2924 6.88763 6.58796 6.58863C6.88351 6.28975 7.03129 5.93036 7.03129 5.51047C7.03129 5.09069 6.88351 4.73397 6.58796 4.4403C6.2924 4.14675 5.93368 3.99997 5.51179 3.99997C5.08712 3.99997 4.72801 4.14813 4.43446 4.44447C4.1409 4.7408 3.99412 5.09891 3.99412 5.5188C3.99412 5.93858 4.1409 6.29658 4.43446 6.5928C4.72801 6.88902 5.08712 7.03713 5.51179 7.03713ZM14.4775 16.8666C13.8159 16.8666 13.2548 16.6363 12.7941 16.1756C12.3333 15.715 12.103 15.1554 12.103 14.497C12.103 13.8385 12.3333 13.2748 12.7941 12.8058C13.2548 12.3369 13.8159 12.1025 14.4775 12.1025C15.139 12.1025 15.7027 12.3369 16.1685 12.8058C16.6342 13.2748 16.8671 13.8385 16.8671 14.497C16.8671 15.1554 16.6342 15.715 16.1685 16.1756C15.7027 16.6363 15.139 16.8666 14.4775 16.8666ZM14.49 16.0063C14.9097 16.0063 15.2665 15.8595 15.5601 15.566C15.8537 15.2724 16.0005 14.9133 16.0005 14.4886C16.0005 14.0667 15.8523 13.708 15.556 13.4125C15.2596 13.1169 14.9015 12.9691 14.4816 12.9691C14.0618 12.9691 13.7038 13.1169 13.4076 13.4125C13.1114 13.708 12.9633 14.0667 12.9633 14.4886C12.9633 14.9133 13.1128 15.2724 13.4118 15.566C13.7107 15.8595 14.0701 16.0063 14.49 16.0063ZM14.49 7.03713C14.9097 7.03713 15.2665 6.88763 15.5601 6.58863C15.8537 6.28975 16.0005 5.93036 16.0005 5.51047C16.0005 5.09069 15.8523 4.73397 15.556 4.4403C15.2596 4.14675 14.9015 3.99997 14.4816 3.99997C14.0618 3.99997 13.7038 4.14813 13.4076 4.44447C13.1114 4.7408 12.9633 5.09891 12.9633 5.5188C12.9633 5.93858 13.1128 6.29658 13.4118 6.5928C13.7107 6.88902 14.0701 7.03713 14.49 7.03713Z" fill="#1A1A1A"/>
</g>
</svg>
