<svg width="20" height="20" viewBox="0 0 20 20" fill="none" xmlns="http://www.w3.org/2000/svg">
<mask id="mask0_236_1258" style="mask-type:alpha" maskUnits="userSpaceOnUse" x="0" y="0" width="20" height="20">
<rect width="20" height="20" fill="#D9D9D9"/>
</mask>
<g mask="url(#mask0_236_1258)">
<path d="M4.49491 8.99984C4.19935 8.99984 3.94581 8.8906 3.73428 8.67213C3.52276 8.45366 3.41699 8.20178 3.41699 7.9165V4.49984C3.41699 4.20484 3.52401 3.95053 3.73803 3.73692C3.95192 3.52331 4.20664 3.4165 4.5022 3.4165H7.92262C8.21803 3.4165 8.47151 3.52331 8.68303 3.73692C8.89456 3.95053 9.00033 4.20484 9.00033 4.49984V7.9165C9.00033 8.20178 8.89331 8.45366 8.67928 8.67213C8.46539 8.8906 8.21067 8.99984 7.91512 8.99984H4.49491ZM4.49491 16.5832C4.19935 16.5832 3.94581 16.4762 3.73428 16.2621C3.52276 16.0482 3.41699 15.7935 3.41699 15.498V12.0775C3.41699 11.7821 3.52401 11.5287 3.73803 11.3171C3.95192 11.1056 4.20664 10.9998 4.5022 10.9998H7.92262C8.21803 10.9998 8.47151 11.1069 8.68303 11.3209C8.89456 11.5348 9.00033 11.7895 9.00033 12.085V15.5053C9.00033 15.8008 8.89331 16.0544 8.67928 16.2659C8.46539 16.4774 8.21067 16.5832 7.91512 16.5832H4.49491ZM12.0837 8.99984C11.7984 8.99984 11.5465 8.8906 11.328 8.67213C11.1096 8.45366 11.0003 8.20178 11.0003 7.9165V4.49984C11.0003 4.20484 11.1096 3.95053 11.328 3.73692C11.5465 3.52331 11.7984 3.4165 12.0837 3.4165H15.5003C15.7953 3.4165 16.0496 3.52331 16.2632 3.73692C16.4769 3.95053 16.5837 4.20484 16.5837 4.49984V7.9165C16.5837 8.20178 16.4769 8.45366 16.2632 8.67213C16.0496 8.8906 15.7953 8.99984 15.5003 8.99984H12.0837ZM12.0837 16.5832C11.7984 16.5832 11.5465 16.4762 11.328 16.2621C11.1096 16.0482 11.0003 15.7935 11.0003 15.498V12.0775C11.0003 11.7821 11.1096 11.5287 11.328 11.3171C11.5465 11.1056 11.7984 10.9998 12.0837 10.9998H15.5003C15.7953 10.9998 16.0496 11.1069 16.2632 11.3209C16.4769 11.5348 16.5837 11.7895 16.5837 12.085V15.5053C16.5837 15.8008 16.4769 16.0544 16.2632 16.2659C16.0496 16.4774 15.7953 16.5832 15.5003 16.5832H12.0837ZM4.50033 7.9165H7.91699V4.49984H4.50033V7.9165ZM12.0837 7.9165H15.5003V4.49984H12.0837V7.9165ZM12.0837 15.4998H15.5003V12.0832H12.0837V15.4998ZM4.50033 15.4998H7.91699V12.0832H4.50033V15.4998Z" fill="white"/>
</g>
</svg>
