<svg width="20" height="20" viewBox="0 0 20 20" fill="none" xmlns="http://www.w3.org/2000/svg">
<mask id="mask0_111_21253" style="mask-type:alpha" maskUnits="userSpaceOnUse" x="0" y="0" width="20" height="20">
<rect width="20" height="20" fill="#D9D9D9"/>
</mask>
<g mask="url(#mask0_111_21253)">
<path d="M4.49442 9.00008C4.19887 9.00008 3.94532 8.89085 3.7338 8.67237C3.52227 8.4539 3.4165 8.20203 3.4165 7.91675V4.50008C3.4165 4.20508 3.52352 3.95078 3.73755 3.73716C3.95143 3.52355 4.20616 3.41675 4.50171 3.41675H7.92213C8.21755 3.41675 8.47102 3.52355 8.68255 3.73716C8.89407 3.95078 8.99984 4.20508 8.99984 4.50008V7.91675C8.99984 8.20203 8.89282 8.4539 8.6788 8.67237C8.46491 8.89085 8.21018 9.00008 7.91463 9.00008H4.49442ZM4.49442 16.5834C4.19887 16.5834 3.94532 16.4764 3.7338 16.2624C3.52227 16.0485 3.4165 15.7938 3.4165 15.4982V12.0778C3.4165 11.7824 3.52352 11.5289 3.73755 11.3174C3.95143 11.1058 4.20616 11.0001 4.50171 11.0001H7.92213C8.21755 11.0001 8.47102 11.1071 8.68255 11.3211C8.89407 11.535 8.99984 11.7897 8.99984 12.0853V15.5055C8.99984 15.8011 8.89282 16.0546 8.6788 16.2661C8.46491 16.4777 8.21018 16.5834 7.91463 16.5834H4.49442ZM12.0832 9.00008C11.7979 9.00008 11.546 8.89085 11.3275 8.67237C11.1091 8.4539 10.9998 8.20203 10.9998 7.91675V4.50008C10.9998 4.20508 11.1091 3.95078 11.3275 3.73716C11.546 3.52355 11.7979 3.41675 12.0832 3.41675H15.4998C15.7948 3.41675 16.0491 3.52355 16.2628 3.73716C16.4764 3.95078 16.5832 4.20508 16.5832 4.50008V7.91675C16.5832 8.20203 16.4764 8.4539 16.2628 8.67237C16.0491 8.89085 15.7948 9.00008 15.4998 9.00008H12.0832ZM12.0832 16.5834C11.7979 16.5834 11.546 16.4764 11.3275 16.2624C11.1091 16.0485 10.9998 15.7938 10.9998 15.4982V12.0778C10.9998 11.7824 11.1091 11.5289 11.3275 11.3174C11.546 11.1058 11.7979 11.0001 12.0832 11.0001H15.4998C15.7948 11.0001 16.0491 11.1071 16.2628 11.3211C16.4764 11.535 16.5832 11.7897 16.5832 12.0853V15.5055C16.5832 15.8011 16.4764 16.0546 16.2628 16.2661C16.0491 16.4777 15.7948 16.5834 15.4998 16.5834H12.0832ZM4.49984 7.91675H7.9165V4.50008H4.49984V7.91675ZM12.0832 7.91675H15.4998V4.50008H12.0832V7.91675ZM12.0832 15.5001H15.4998V12.0834H12.0832V15.5001ZM4.49984 15.5001H7.9165V12.0834H4.49984V15.5001Z" fill="#5A5A5A"/>
</g>
</svg>
