<svg width="20" height="20" viewBox="0 0 20 20" fill="none" xmlns="http://www.w3.org/2000/svg">
<mask id="mask0_253_593" style="mask-type:alpha" maskUnits="userSpaceOnUse" x="0" y="0" width="20" height="20">
<rect width="20" height="20" fill="#D9D9D9"/>
</mask>
<g mask="url(#mask0_253_593)">
<path d="M5.00018 16.6796C4.25504 16.6796 3.62219 16.4193 3.10163 15.8987C2.58108 15.3782 2.3208 14.7453 2.3208 14.0002C2.3208 13.255 2.58108 12.6222 3.10163 12.1016C3.62219 11.5811 4.25504 11.3208 5.00018 11.3208C5.74531 11.3208 6.37816 11.5811 6.89872 12.1016C7.41927 12.6222 7.67955 13.255 7.67955 14.0002C7.67955 14.7453 7.41927 15.3782 6.89872 15.8987C6.37816 16.4193 5.74531 16.6796 5.00018 16.6796ZM15.0002 16.6796C14.255 16.6796 13.6222 16.4193 13.1016 15.8987C12.5811 15.3782 12.3208 14.7453 12.3208 14.0002C12.3208 13.255 12.5811 12.6222 13.1016 12.1016C13.6222 11.5811 14.255 11.3208 15.0002 11.3208C15.7453 11.3208 16.3782 11.5811 16.8987 12.1016C17.4193 12.6222 17.6796 13.255 17.6796 14.0002C17.6796 14.7453 17.4193 15.3782 16.8987 15.8987C16.3782 16.4193 15.7453 16.6796 15.0002 16.6796ZM5.00497 15.5964C5.44511 15.5964 5.82038 15.4396 6.1308 15.126C6.44122 14.8125 6.59643 14.4357 6.59643 13.9954C6.59643 13.5552 6.43962 13.18 6.12601 12.8696C5.81254 12.5591 5.43566 12.4039 4.99538 12.4039C4.55525 12.4039 4.17997 12.5607 3.86955 12.8743C3.55913 13.1878 3.40393 13.5647 3.40393 14.005C3.40393 14.4451 3.56073 14.8204 3.87434 15.1308C4.18781 15.4412 4.56469 15.5964 5.00497 15.5964ZM15.005 15.5964C15.4451 15.5964 15.8204 15.4396 16.1308 15.126C16.4412 14.8125 16.5964 14.4357 16.5964 13.9954C16.5964 13.5552 16.4396 13.18 16.126 12.8696C15.8125 12.5591 15.4357 12.4039 14.9954 12.4039C14.5552 12.4039 14.18 12.5607 13.8696 12.8743C13.5591 13.1878 13.4039 13.5647 13.4039 14.005C13.4039 14.4451 13.5607 14.8204 13.8743 15.1308C14.1878 15.4412 14.5647 15.5964 15.005 15.5964ZM10.0002 8.67955C9.25504 8.67955 8.62219 8.41927 8.10163 7.89872C7.58108 7.37816 7.3208 6.74531 7.3208 6.00018C7.3208 5.25504 7.58108 4.62219 8.10163 4.10163C8.62219 3.58108 9.25504 3.3208 10.0002 3.3208C10.7453 3.3208 11.3782 3.58108 11.8987 4.10163C12.4193 4.62219 12.6796 5.25504 12.6796 6.00018C12.6796 6.74531 12.4193 7.37816 11.8987 7.89872C11.3782 8.41927 10.7453 8.67955 10.0002 8.67955ZM10.005 7.59643C10.4451 7.59643 10.8204 7.43962 11.1308 7.12601C11.4412 6.81254 11.5964 6.43566 11.5964 5.99538C11.5964 5.55525 11.4396 5.17997 11.126 4.86955C10.8125 4.55913 10.4357 4.40393 9.99538 4.40393C9.55525 4.40393 9.17997 4.56073 8.86955 4.87434C8.55913 5.18781 8.40393 5.56469 8.40393 6.00497C8.40393 6.44511 8.56073 6.82038 8.87434 7.1308C9.18782 7.44122 9.56469 7.59643 10.005 7.59643Z" fill="#1A1A1A"/>
</g>
</svg>
