<svg width="20" height="20" viewBox="0 0 20 20" fill="none" xmlns="http://www.w3.org/2000/svg">
<path d="M9.07711 17.9168C8.79295 17.9168 8.54753 17.8225 8.34086 17.6339C8.13406 17.4455 8.00823 17.2134 7.96336 16.9377L7.75982 15.3783C7.53663 15.3036 7.30774 15.1989 7.07316 15.0643C6.83871 14.9296 6.62906 14.7854 6.4442 14.6316L5.00024 15.2454C4.73843 15.3608 4.47538 15.372 4.21107 15.2789C3.94663 15.186 3.74121 15.0173 3.59482 14.7727L2.65566 13.1443C2.50927 12.8998 2.46711 12.6409 2.5292 12.3679C2.59114 12.095 2.73323 11.8698 2.95545 11.6925L4.20378 10.755C4.18461 10.6311 4.171 10.5066 4.16295 10.3816C4.15489 10.2566 4.15086 10.1321 4.15086 10.0081C4.15086 9.88961 4.15489 9.7692 4.16295 9.64684C4.171 9.52447 4.18461 9.39066 4.20378 9.24538L2.95545 8.30788C2.73323 8.13052 2.59246 7.90399 2.53316 7.62829C2.47385 7.35274 2.51739 7.0926 2.66378 6.84788L3.59482 5.24371C3.74121 5.00441 3.94663 4.83698 4.21107 4.74142C4.47538 4.64573 4.73843 4.65559 5.00024 4.771L6.43607 5.37684C6.63705 5.21767 6.85156 5.07211 7.07961 4.94017C7.30767 4.80822 7.53177 4.70218 7.75191 4.62204L7.96336 3.06267C8.00823 2.78698 8.13406 2.55489 8.34086 2.36642C8.54753 2.17781 8.79295 2.0835 9.07711 2.0835H10.9234C11.2075 2.0835 11.4529 2.17781 11.6596 2.36642C11.8664 2.55489 11.9923 2.78698 12.0371 3.06267L12.2407 4.62996C12.4907 4.72079 12.7168 4.82684 12.9192 4.94809C13.1217 5.06934 13.3261 5.21225 13.5323 5.37684L15.0084 4.771C15.27 4.65559 15.5331 4.64573 15.7975 4.74142C16.062 4.83698 16.2673 5.00441 16.4136 5.24371L17.3448 6.856C17.4912 7.10059 17.5334 7.3594 17.4713 7.63246C17.4093 7.90538 17.2673 8.13052 17.045 8.30788L15.7646 9.26934C15.7945 9.40392 15.8108 9.52975 15.8136 9.64684C15.8162 9.76378 15.8175 9.88156 15.8175 10.0002C15.8175 10.1134 15.8148 10.2285 15.8094 10.3456C15.8041 10.4625 15.785 10.5964 15.7519 10.7471L17.0082 11.6925C17.2304 11.8698 17.3738 12.095 17.4386 12.3679C17.5032 12.6409 17.4623 12.8998 17.3159 13.1443L16.3719 14.7646C16.2257 15.0093 16.019 15.1781 15.7519 15.271C15.4848 15.3639 15.2204 15.3527 14.9586 15.2373L13.5323 14.6235C13.3261 14.7881 13.1156 14.9337 12.9009 15.0602C12.6861 15.1868 12.4661 15.2902 12.2407 15.3704L12.0371 16.9377C11.9923 17.2134 11.8664 17.4455 11.6596 17.6339C11.4529 17.8225 11.2075 17.9168 10.9234 17.9168H9.07711ZM9.16691 16.6668H10.8048L11.1044 14.4346C11.5297 14.3234 11.9183 14.1656 12.2702 13.961C12.6223 13.7563 12.9618 13.4932 13.2888 13.1716L15.3592 14.0418L16.1798 12.6252L14.3721 11.2631C14.4416 11.0473 14.4888 10.8357 14.5138 10.6283C14.5389 10.4211 14.5515 10.2117 14.5515 10.0002C14.5515 9.78322 14.5389 9.57385 14.5138 9.37204C14.4888 9.1701 14.4416 8.96385 14.3721 8.75329L16.1957 7.37517L15.3752 5.9585L13.2807 6.84142C13.0018 6.54336 12.6677 6.28003 12.2784 6.05142C11.8889 5.82281 11.495 5.66093 11.0965 5.56579L10.8336 3.3335H9.17982L8.90399 5.55788C8.47885 5.65829 8.08628 5.81211 7.72628 6.01934C7.36614 6.2267 7.0226 6.49378 6.69566 6.82059L4.62524 5.9585L3.80482 7.37517L5.60441 8.71642C5.53496 8.9142 5.48635 9.11989 5.45857 9.3335C5.43079 9.54711 5.41691 9.77197 5.41691 10.0081C5.41691 10.225 5.43079 10.4377 5.45857 10.646C5.48635 10.8543 5.53232 11.06 5.59649 11.2631L3.80482 12.6252L4.62524 14.0418L6.68774 13.1668C7.00399 13.4916 7.34211 13.7576 7.70211 13.965C8.06225 14.1722 8.46024 14.3314 8.89607 14.4425L9.16691 16.6668ZM10.0098 12.5002C10.7032 12.5002 11.2932 12.2568 11.7798 11.7702C12.2665 11.2835 12.5098 10.6935 12.5098 10.0002C12.5098 9.30684 12.2665 8.71684 11.7798 8.23017C11.2932 7.7435 10.7032 7.50017 10.0098 7.50017C9.30788 7.50017 8.71573 7.7435 8.23336 8.23017C7.751 8.71684 7.50982 9.30684 7.50982 10.0002C7.50982 10.6935 7.751 11.2835 8.23336 11.7702C8.71573 12.2568 9.30788 12.5002 10.0098 12.5002Z" fill="#5A5A5A"/>
</svg>
