<svg width="20" height="20" viewBox="0 0 20 20" fill="none" xmlns="http://www.w3.org/2000/svg">
<mask id="mask0_134_511" style="mask-type:alpha" maskUnits="userSpaceOnUse" x="0" y="0" width="20" height="20">
<rect width="20" height="20" fill="#D9D9D9"/>
</mask>
<g mask="url(#mask0_134_511)">
<path d="M10.4598 7.09442V12.9053L13.6232 9.99984L10.4598 7.09442ZM4.65213 16.5832C4.31102 16.5832 4.01977 16.4625 3.77838 16.2213C3.53713 15.9799 3.4165 15.6887 3.4165 15.3475V4.65213C3.4165 4.31102 3.53713 4.01977 3.77838 3.77838C4.01977 3.53713 4.31102 3.4165 4.65213 3.4165H15.3475C15.6887 3.4165 15.9799 3.53713 16.2213 3.77838C16.4625 4.01977 16.5832 4.31102 16.5832 4.65213V15.3475C16.5832 15.6887 16.4625 15.9799 16.2213 16.2213C15.9799 16.4625 15.6887 16.5832 15.3475 16.5832H4.65213ZM6.99984 15.4998V4.49984H4.7563C4.69213 4.49984 4.63338 4.52657 4.58005 4.58005C4.52657 4.63338 4.49984 4.69213 4.49984 4.7563V15.2434C4.49984 15.3075 4.52657 15.3663 4.58005 15.4196C4.63338 15.4731 4.69213 15.4998 4.7563 15.4998H6.99984ZM8.08317 15.4998H15.2434C15.3075 15.4998 15.3663 15.4731 15.4196 15.4196C15.4731 15.3663 15.4998 15.3075 15.4998 15.2434V4.7563C15.4998 4.69213 15.4731 4.63338 15.4196 4.58005C15.3663 4.52657 15.3075 4.49984 15.2434 4.49984H8.08317V15.4998Z" fill="#5A5A5A"/>
</g>
</svg>
